<svg xmlns="http://www.w3.org/2000/svg" xmlns:xlink="http://www.w3.org/1999/xlink" width="190" height="113" viewBox="0 0 190 113">
  <defs>
    <filter id="Trazado_874925" x="46" y="10.001" width="98" height="98" filterUnits="userSpaceOnUse">
      <feOffset dy="3" input="SourceAlpha"/>
      <feGaussianBlur stdDeviation="3" result="blur"/>
      <feFlood flood-opacity="0.161"/>
      <feComposite operator="in" in2="blur"/>
      <feComposite in="SourceGraphic"/>
    </filter>
  </defs>
  <g id="Grupo_1188784" data-name="Grupo 1188784" transform="translate(-1230.051 -935)">
    <rect id="Rectángulo_410243" data-name="Rectángulo 410243" width="190" height="113" transform="translate(1230.051 935)" fill="#dae1e2"/>
    <g id="Grupo_1187377" data-name="Grupo 1187377">
      <g id="Grupo_1186569" data-name="Grupo 1186569" transform="translate(1000.051 -5146.406)">
        <g id="Grupo_1181903" data-name="Grupo 1181903">
          <g id="Grupo_1181438" data-name="Grupo 1181438">
            <g id="Grupo_1111314" data-name="Grupo 1111314" transform="translate(-734.73 3020.407)">
              <g transform="matrix(1, 0, 0, 1, 964.73, 3061)" filter="url(#Trazado_874925)">
                <g id="Trazado_874925-2" data-name="Trazado 874925" transform="translate(55 16)" fill="#eab03c">
                  <path d="M 39.99997329711914 78.50040435791016 C 34.80184936523438 78.50040435791016 29.76000595092773 77.48268127441406 25.01450729370117 75.47550201416016 C 20.43013954162598 73.53648376464844 16.3126392364502 70.76027679443359 12.7763843536377 67.22402191162109 C 9.240128517150879 63.68776702880859 6.463928699493408 59.57027053833008 4.524906635284424 54.98590087890625 C 2.517728805541992 50.24040222167969 1.500006675720215 45.19855880737305 1.500006675720215 40.00043487548828 C 1.500006675720215 34.80185699462891 2.517728805541992 29.76001358032227 4.524906635284424 25.01451301574707 C 6.463928699493408 20.43013572692871 9.240128517150879 16.31263542175293 12.7763843536377 12.77637958526611 C 16.3126392364502 9.240124702453613 20.43013954162598 6.463935375213623 25.01450729370117 4.52490234375 C 29.76000595092773 2.517724514007568 34.80184936523438 1.500002145767212 39.99997329711914 1.500002145767212 C 45.19809722900391 1.500002145767212 50.23994064331055 2.517724514007568 54.98543930053711 4.52490234375 C 59.56981658935547 6.463935375213623 63.68731689453125 9.240124702453613 67.22357177734375 12.77637958526611 C 70.75982666015625 16.31263542175293 73.53601837158203 20.43013572692871 75.47505187988281 25.01451301574707 C 77.48223114013672 29.76001358032227 78.49995422363281 34.80185699462891 78.49995422363281 39.99998092651367 C 78.49995422363281 45.19855880737305 77.48223114013672 50.24040222167969 75.47505187988281 54.98590087890625 C 73.53601837158203 59.57027053833008 70.75982666015625 63.68776702880859 67.22357177734375 67.22402191162109 C 63.68731689453125 70.76027679443359 59.56981658935547 73.53648376464844 54.98543930053711 75.47550201416016 C 50.23994064331055 77.48268127441406 45.19809722900391 78.50040435791016 39.99997329711914 78.50040435791016 Z" stroke="none"/>
                  <path d="M 39.99997329711914 3 C 35.00369262695312 3 30.15843963623047 3.977851867675781 25.59883880615234 5.906417846679688 C 21.19326782226562 7.769813537597656 17.23602676391602 10.43805694580078 13.83704376220703 13.83704376220703 C 10.43805694580078 17.23601531982422 7.769813537597656 21.19325637817383 5.906410217285156 25.59882736206055 C 3.977851867675781 30.15844345092773 3 35.00368118286133 3 40.00042724609375 C 3 44.99672317504883 3.977851867675781 49.84196472167969 5.906410217285156 54.40157318115234 C 7.769813537597656 58.80714797973633 10.43805694580078 62.76438903808594 13.83704376220703 66.16336059570312 C 17.23602676391602 69.56234741210938 21.19326782226562 72.2305908203125 25.59883880615234 74.09398651123047 C 30.15843963623047 76.02255249023438 35.00369262695312 77.00040435791016 39.99997329711914 77.00040435791016 C 44.99625396728516 77.00040435791016 49.84150695800781 76.02255249023438 54.40110778808594 74.09398651123047 C 58.80667877197266 72.2305908203125 62.76391983032227 69.56234741210938 66.16290283203125 66.16336059570312 C 69.5618896484375 62.76438903808594 72.23013305664062 58.80714797973633 74.09353637695312 54.40157318115234 C 76.0220947265625 49.84196472167969 76.99994659423828 44.99672317504883 76.99994659423828 39.99997711181641 C 76.99994659423828 35.00368118286133 76.0220947265625 30.15844345092773 74.09353637695312 25.59882736206055 C 72.23013305664062 21.19325637817383 69.5618896484375 17.23601531982422 66.16290283203125 13.83704376220703 C 62.76391983032227 10.43805694580078 58.80667877197266 7.769813537597656 54.40110778808594 5.906417846679688 C 49.84150695800781 3.977851867675781 44.99625396728516 3 39.99997329711914 3 M 39.99997329711914 0 C 62.09134674072266 0 79.99994659423828 17.90858840942383 79.99994659423828 39.99997711181641 L 79.99994659423828 40.00042724609375 C 79.99994659423828 62.09181594848633 62.09134674072266 80.00040435791016 39.99997329711914 80.00040435791016 C 17.90859985351562 80.00040435791016 0 62.09181594848633 0 40.00042724609375 L 0 39.99997711181641 C 0 17.90858840942383 17.90859985351562 0 39.99997329711914 0 Z" stroke="none" fill="#fff"/>
                </g>
              </g>
            </g>
          </g>
        </g>
      </g>
      <g id="Layer_66" transform="translate(1301.051 968)">
        <g id="Grupo_1187376" data-name="Grupo 1187376" transform="translate(0 0)">
          <g id="Grupo_1187230" data-name="Grupo 1187230" transform="translate(3.632 23.583)">
            <g id="Grupo_1187229" data-name="Grupo 1187229">
              <path id="Trazado_1274589" data-name="Trazado 1274589" d="M22.43,126.739a2.169,2.169,0,0,1-1.673-.408A6.2,6.2,0,0,0,21.2,129.9c.711,1.778-1.969,3.256-1.732,5.735l2.675-.675a4.649,4.649,0,0,0,.918-.338l1.312-.647a1.475,1.475,0,0,0,.823-1.323v-1.609A5.326,5.326,0,0,1,22.43,126.739Z" transform="translate(-19.456 -126.331)" fill="#fcdd86"/>
            </g>
          </g>
          <g id="Grupo_1187232" data-name="Grupo 1187232" transform="translate(0.467 32.261)">
            <g id="Grupo_1187231" data-name="Grupo 1187231">
              <path id="Trazado_1274590" data-name="Trazado 1274590" d="M21.289,175.534a1.909,1.909,0,0,1-2.184-1.526c-1.949,3.42-3.927,1.821-4.77.847a.417.417,0,0,1-.1-.268h-.6a.417.417,0,0,1-.1.268c-.928,1.072-3.231,2.9-5.357-2.037l-3.612.912a2.176,2.176,0,0,0-1.641,1.989L2.5,187.24a.6.6,0,0,0,.6.638h3.36a.409.409,0,0,0,.409-.409v-7.2l.593,1.9a12.88,12.88,0,0,1,.585,3.838v1.464a.409.409,0,0,0,.409.409h8.112l.178-3.253a1.809,1.809,0,0,1,1.364-1.654l2.21-.556c.123-.425.223-.724.666-2.149v1.981l.684-.172,1.061-.523a1.654,1.654,0,0,0,1.081-1.518v-.712A4.6,4.6,0,0,1,21.289,175.534Z" transform="translate(-2.5 -172.817)" fill="#fc657e"/>
            </g>
          </g>
          <g id="Grupo_1187234" data-name="Grupo 1187234" transform="translate(12.197 31.383)">
            <g id="Grupo_1187233" data-name="Grupo 1187233">
              <path id="Trazado_1274591" data-name="Trazado 1274591" d="M70.419,168.891a11.6,11.6,0,0,1-1.724-.777,7.056,7.056,0,0,1-3.042,2.217.435.435,0,0,0-.212.7c.843.974,2.821,2.573,4.77-.847A1.9,1.9,0,0,1,70.419,168.891Z" transform="translate(-65.337 -168.114)" fill="#edf4fc"/>
            </g>
          </g>
          <g id="Grupo_1187236" data-name="Grupo 1187236" transform="translate(6.14 31.383)">
            <g id="Grupo_1187235" data-name="Grupo 1187235">
              <path id="Trazado_1274592" data-name="Trazado 1274592" d="M38.036,170.331a7.055,7.055,0,0,1-3.042-2.217l-1,.494a4.645,4.645,0,0,1-.918.338l-.182.046c2.126,4.94,4.429,3.11,5.357,2.037A.435.435,0,0,0,38.036,170.331Z" transform="translate(-32.891 -168.114)" fill="#edf4fc"/>
            </g>
          </g>
          <g id="Grupo_1187238" data-name="Grupo 1187238" transform="translate(8.243 28.298)">
            <g id="Grupo_1187237" data-name="Grupo 1187237">
              <path id="Trazado_1274593" data-name="Trazado 1274593" d="M51.159,154.521a1.475,1.475,0,0,1-.823-1.323v-1.609a5.276,5.276,0,0,1-5.048,0V153.2a1.475,1.475,0,0,1-.823,1.323l-.309.153A7.056,7.056,0,0,0,47.2,156.89a.441.441,0,0,1,.313.431h.6a.441.441,0,0,1,.313-.431,7.054,7.054,0,0,0,3.042-2.217Z" transform="translate(-44.156 -151.589)" fill="#f9d0b4"/>
            </g>
          </g>
          <g id="Grupo_1187243" data-name="Grupo 1187243" transform="translate(0 31.794)">
            <g id="Grupo_1187240" data-name="Grupo 1187240" transform="translate(17.856 7.45)">
              <g id="Grupo_1187239" data-name="Grupo 1187239">
                <path id="Trazado_1274594" data-name="Trazado 1274594" d="M96.824,210.23a.466.466,0,0,0-.516.323c-.17.548-.29.93-.379,1.216-.125.4-.192.614-.258.835a.842.842,0,0,0,1.549-.03v-1.883A.467.467,0,0,0,96.824,210.23Z" transform="translate(-95.652 -210.225)"/>
              </g>
            </g>
            <g id="Grupo_1187242" data-name="Grupo 1187242">
              <g id="Grupo_1187241" data-name="Grupo 1187241">
                <path id="Trazado_1274595" data-name="Trazado 1274595" d="M14.539,185.379H6.486v-1.406A13.333,13.333,0,0,0,5.879,180l-.593-1.9a.467.467,0,0,0-.912.139v7.145h-3.3a.138.138,0,0,1-.1-.043.144.144,0,0,1-.037-.112l.419-11.514a1.7,1.7,0,0,1,1.29-1.562l3.612-.912a.467.467,0,1,0-.228-.9l-3.611.912a2.633,2.633,0,0,0-1.994,2.425L0,185.181a1.072,1.072,0,0,0,1.07,1.131h3.36a.877.877,0,0,0,.876-.876v-3.919a12.394,12.394,0,0,1,.245,2.455v1.464a.877.877,0,0,0,.876.876H14.54a.467.467,0,1,0,0-.933Z" transform="translate(0 -170.318)"/>
              </g>
            </g>
          </g>
          <g id="Grupo_1187245" data-name="Grupo 1187245" transform="translate(14.423 23.583)">
            <g id="Grupo_1187244" data-name="Grupo 1187244">
              <path id="Trazado_1274596" data-name="Trazado 1274596" d="M81.7,126.33a2.169,2.169,0,0,1-1.673.408,5.325,5.325,0,0,1-2.769,4.308v1.609a1.475,1.475,0,0,0,.823,1.323l1.312.647a4.635,4.635,0,0,0,.721.282,1.925,1.925,0,0,1,.478-.564h0v-1.666a6.11,6.11,0,0,1,.662-2.772v0a6.2,6.2,0,0,0,.446-3.572Z" transform="translate(-77.261 -126.33)" fill="#fcdd86"/>
            </g>
          </g>
          <g id="Grupo_1187247" data-name="Grupo 1187247" transform="translate(17.192 19.591)">
            <g id="Grupo_1187246" data-name="Grupo 1187246">
              <path id="Trazado_1274597" data-name="Trazado 1274597" d="M92.449,104.944a2.2,2.2,0,0,0-.34.027v4.017c0,.12-.005.238-.013.356a2.214,2.214,0,1,0,.354-4.4Z" transform="translate(-92.095 -104.944)" fill="#f9d0b4"/>
            </g>
          </g>
          <g id="Grupo_1187249" data-name="Grupo 1187249" transform="translate(6.593 17.736)">
            <g id="Grupo_1187248" data-name="Grupo 1187248">
              <path id="Trazado_1274598" data-name="Trazado 1274598" d="M45.6,96.215A4.4,4.4,0,0,1,43.666,95.1a.352.352,0,0,0-.506.028c-.808.943-3.674,3.805-7.844,2.617v3.16a5.306,5.306,0,0,0,10.613,0V96.619A.416.416,0,0,0,45.6,96.215Z" transform="translate(-35.316 -95.007)" fill="#f9d0b4"/>
            </g>
          </g>
          <g id="Grupo_1187251" data-name="Grupo 1187251" transform="translate(4.037 20.01)">
            <g id="Grupo_1187250" data-name="Grupo 1187250">
              <path id="Trazado_1274599" data-name="Trazado 1274599" d="M24.18,110.816v-3.16a8.622,8.622,0,0,1-1.122-.408.675.675,0,0,0-.734.126,2.208,2.208,0,0,0,1.87,3.8C24.186,111.054,24.18,110.935,24.18,110.816Z" transform="translate(-21.624 -107.191)" fill="#f9d0b4"/>
            </g>
          </g>
          <g id="Grupo_1187253" data-name="Grupo 1187253" transform="translate(4.684 11.729)">
            <g id="Grupo_1187252" data-name="Grupo 1187252">
              <path id="Trazado_1274600" data-name="Trazado 1274600" d="M32.3,62.829a7.237,7.237,0,0,0-7.216,7.216v1.3c.018-.018.035-.038.053-.055a.675.675,0,0,1,.734-.126A8.623,8.623,0,0,0,27,71.575c4.171,1.188,7.036-1.674,7.844-2.617a.352.352,0,0,1,.506-.028,4.4,4.4,0,0,0,1.936,1.114.416.416,0,0,1,.326.4v.27a2.205,2.205,0,0,1,1.909.624v-1.3A7.237,7.237,0,0,0,32.3,62.829Z" transform="translate(-25.089 -62.829)" fill="#fcdd86"/>
            </g>
          </g>
          <g id="Grupo_1187255" data-name="Grupo 1187255" transform="translate(16.864 19.124)">
            <g id="Grupo_1187254" data-name="Grupo 1187254">
              <path id="Trazado_1274601" data-name="Trazado 1274601" d="M91.022,102.444c-.083,0-.165,0-.245.012a.467.467,0,0,0,.086.929c.052,0,.105-.008.159-.008a1.749,1.749,0,1,1,0,3.5,1.54,1.54,0,0,1-.164-.009.467.467,0,1,0-.1.928,2.444,2.444,0,0,0,.265.015,2.682,2.682,0,1,0,0-5.364Z" transform="translate(-90.34 -102.444)"/>
            </g>
          </g>
          <g id="Grupo_1187257" data-name="Grupo 1187257" transform="translate(9.969 24.922)">
            <g id="Grupo_1187256" data-name="Grupo 1187256">
              <path id="Trazado_1274602" data-name="Trazado 1274602" d="M57.25,133.613a.467.467,0,0,0-.657.058,1.664,1.664,0,0,1-2.366,0,.467.467,0,0,0-.715.6,2.592,2.592,0,0,0,3.8,0A.467.467,0,0,0,57.25,133.613Z" transform="translate(-53.403 -133.503)"/>
            </g>
          </g>
          <g id="Grupo_1187260" data-name="Grupo 1187260" transform="translate(6.126 17.269)">
            <g id="Grupo_1187259" data-name="Grupo 1187259">
              <g id="Grupo_1187258" data-name="Grupo 1187258">
                <path id="Trazado_1274603" data-name="Trazado 1274603" d="M43.674,93.727a4.007,4.007,0,0,1-1.728-1.005.831.831,0,0,0-.606-.213.809.809,0,0,0-.568.283c-.738.862-3.45,3.586-7.362,2.472a.467.467,0,0,0-.595.449v3.16a5.773,5.773,0,1,0,11.546,0V94.586A.88.88,0,0,0,43.674,93.727Zm-.245,5.146a4.84,4.84,0,1,1-9.679,0V96.307A8.167,8.167,0,0,0,41.4,93.488a4.859,4.859,0,0,0,2.025,1.139Z" transform="translate(-32.816 -92.507)"/>
              </g>
            </g>
          </g>
          <g id="Grupo_1187262" data-name="Grupo 1187262" transform="translate(3.57 19.543)">
            <g id="Grupo_1187261" data-name="Grupo 1187261">
              <path id="Trazado_1274604" data-name="Trazado 1274604" d="M20.837,105.638a9.143,9.143,0,0,0,1.183.43.467.467,0,0,0,.256-.9,8.183,8.183,0,0,1-1.062-.386,1.138,1.138,0,0,0-1.241.213,2.68,2.68,0,0,0,1.835,4.635c.075,0,.149,0,.222-.011a.467.467,0,0,0-.086-.929c-.045,0-.09.007-.136.007a1.751,1.751,0,0,1-1.749-1.749,1.728,1.728,0,0,1,.552-1.272.208.208,0,0,1,.226-.04Z" transform="translate(-19.125 -104.687)"/>
            </g>
          </g>
          <g id="Grupo_1187264" data-name="Grupo 1187264" transform="translate(4.217 11.262)">
            <g id="Grupo_1187263" data-name="Grupo 1187263">
              <path id="Trazado_1274605" data-name="Trazado 1274605" d="M30.271,60.329a7.691,7.691,0,0,0-7.682,7.682V69.2a.467.467,0,1,0,.933,0V68.011a6.749,6.749,0,1,1,13.5,0v1.162a.467.467,0,1,0,.933,0V68.011a7.691,7.691,0,0,0-7.682-7.682Z" transform="translate(-22.589 -60.329)"/>
            </g>
          </g>
          <g id="Grupo_1187266" data-name="Grupo 1187266" transform="translate(17.951 23.229)">
            <g id="Grupo_1187265" data-name="Grupo 1187265">
              <path id="Trazado_1274606" data-name="Trazado 1274606" d="M97.557,124.819a.467.467,0,0,0-.919.164,5.949,5.949,0,0,1-.442,3.2l-.007.02a.467.467,0,0,0,.873.329l0-.009a6.776,6.776,0,0,0,.492-3.709Z" transform="translate(-96.162 -124.434)"/>
            </g>
          </g>
          <g id="Grupo_1187268" data-name="Grupo 1187268" transform="translate(3.165 23.228)">
            <g id="Grupo_1187267" data-name="Grupo 1187267">
              <path id="Trazado_1274607" data-name="Trazado 1274607" d="M19.6,128.182a5.946,5.946,0,0,1-.441-3.206.467.467,0,1,0-.919-.164,6.775,6.775,0,0,0,.494,3.716c.258.645-.084,1.258-.664,2.2a5.521,5.521,0,0,0-1.11,3.275.467.467,0,0,0,.465.438h.029a.467.467,0,0,0,.437-.495,4.724,4.724,0,0,1,.974-2.731C19.449,130.273,20.048,129.293,19.6,128.182Z" transform="translate(-16.956 -124.427)"/>
            </g>
          </g>
          <g id="Grupo_1187271" data-name="Grupo 1187271" transform="translate(11.73 30.916)">
            <g id="Grupo_1187270" data-name="Grupo 1187270">
              <g id="Grupo_1187269" data-name="Grupo 1187269">
                <path id="Trazado_1274608" data-name="Trazado 1274608" d="M68.817,166.683a.467.467,0,0,0-.3-.272,4.215,4.215,0,0,1-.649-.254l-1-.494a.466.466,0,0,0-.561.115,6.62,6.62,0,0,1-2.825,2.074.912.912,0,0,0-.61.621.889.889,0,0,0,.184.829,3.537,3.537,0,0,0,2.527,1.4q.113,0,.23-.011c1.024-.1,1.957-.877,2.772-2.308a.466.466,0,0,0,.053-.319,1.429,1.429,0,0,1,.156-.976A.466.466,0,0,0,68.817,166.683Zm-1.125,1.374c-.633,1.063-1.3,1.636-1.972,1.7a2.552,2.552,0,0,1-1.924-1.028,7.26,7.26,0,0,0,2.979-2.074l.683.337q.151.075.309.139a2.347,2.347,0,0,0-.075.923Z" transform="translate(-62.836 -165.615)"/>
              </g>
            </g>
          </g>
          <g id="Grupo_1187274" data-name="Grupo 1187274" transform="translate(5.673 30.916)">
            <g id="Grupo_1187273" data-name="Grupo 1187273">
              <g id="Grupo_1187272" data-name="Grupo 1187272">
                <path id="Trazado_1274609" data-name="Trazado 1274609" d="M36.751,168.473a.912.912,0,0,0-.61-.621,6.619,6.619,0,0,1-2.826-2.074.467.467,0,0,0-.561-.115l-1,.494a4.18,4.18,0,0,1-.826.3l-.182.046a.467.467,0,0,0-.314.637c.926,2.151,2.02,3.338,3.254,3.529a2.253,2.253,0,0,0,.345.027,3.487,3.487,0,0,0,2.54-1.4A.89.89,0,0,0,36.751,168.473Zm-2.926,1.277c-.8-.124-1.6-.98-2.317-2.487a5.1,5.1,0,0,0,.657-.268l.683-.337a7.258,7.258,0,0,0,2.979,2.074A2.481,2.481,0,0,1,33.825,169.751Z" transform="translate(-30.391 -165.615)"/>
              </g>
            </g>
          </g>
          <g id="Grupo_1187276" data-name="Grupo 1187276" transform="translate(13.956 27.99)">
            <g id="Grupo_1187275" data-name="Grupo 1187275">
              <path id="Trazado_1274610" data-name="Trazado 1274610" d="M76.567,152.912l-.31-.153a1,1,0,0,1-.562-.9V150.4a.467.467,0,0,0-.933,0v1.451a1.93,1.93,0,0,0,1.083,1.742l.309.153a.467.467,0,0,0,.413-.837Z" transform="translate(-74.762 -149.938)"/>
            </g>
          </g>
          <g id="Grupo_1187278" data-name="Grupo 1187278" transform="translate(11.165 33.564)">
            <g id="Grupo_1187277" data-name="Grupo 1187277">
              <path id="Trazado_1274611" data-name="Trazado 1274611" d="M60.809,179.8h-.536a.467.467,0,1,0,0,.933h.536a.467.467,0,0,0,0-.933Z" transform="translate(-59.807 -179.797)"/>
            </g>
          </g>
          <g id="Grupo_1187280" data-name="Grupo 1187280" transform="translate(7.776 28.001)">
            <g id="Grupo_1187279" data-name="Grupo 1187279">
              <path id="Trazado_1274612" data-name="Trazado 1274612" d="M43.254,150a.467.467,0,0,0-.467.467v1.439a1,1,0,0,1-.563.9l-.309.153a.467.467,0,1,0,.413.837l.309-.152a1.93,1.93,0,0,0,1.083-1.742v-1.439A.467.467,0,0,0,43.254,150Z" transform="translate(-41.655 -150)"/>
            </g>
          </g>
          <g id="Grupo_1187282" data-name="Grupo 1187282" transform="translate(29.707 16.812)">
            <g id="Grupo_1187281" data-name="Grupo 1187281">
              <path id="Trazado_1274613" data-name="Trazado 1274613" d="M170.4,91.9a.3.3,0,0,0-.291-.3,5.863,5.863,0,0,1-4.046-1.46.3.3,0,0,0-.451.028,6.1,6.1,0,0,1-6.112,2.008.3.3,0,0,0-.363.29v4.535a5.632,5.632,0,1,0,11.265,0V91.992C170.4,91.963,170.4,91.933,170.4,91.9Z" transform="translate(-159.139 -90.06)" fill="#f9c1a8"/>
            </g>
          </g>
          <g id="Grupo_1187284" data-name="Grupo 1187284" transform="translate(27.879 11.565)">
            <g id="Grupo_1187283" data-name="Grupo 1187283">
              <path id="Trazado_1274614" data-name="Trazado 1274614" d="M161.212,63.07a3.184,3.184,0,0,0-1.643.459,3.22,3.22,0,0,0-2.759-1.575h-1.652a5.831,5.831,0,0,0-5.814,5.814v2.605a2.335,2.335,0,0,1,1.829-.487v-.271a.3.3,0,0,1,.363-.29,6.1,6.1,0,0,0,6.112-2.008.3.3,0,0,1,.451-.028,5.864,5.864,0,0,0,4.046,1.46.3.3,0,0,1,.291.3c0,.029,0,.059,0,.088v.753a2.336,2.336,0,0,1,1.992.631v-4.23A3.227,3.227,0,0,0,161.212,63.07Z" transform="translate(-149.343 -61.954)" fill="#414344"/>
            </g>
          </g>
          <g id="Grupo_1187286" data-name="Grupo 1187286" transform="translate(40.958 19.468)">
            <g id="Grupo_1187285" data-name="Grupo 1187285">
              <path id="Trazado_1274615" data-name="Trazado 1274615" d="M219.783,104.29a2.329,2.329,0,0,0-.361.029v4.264c0,.127-.006.253-.014.378a2.35,2.35,0,1,0,.376-4.67Z" transform="translate(-219.407 -104.29)" fill="#f9c1a8"/>
            </g>
          </g>
          <g id="Grupo_1187288" data-name="Grupo 1187288" transform="translate(26.994 19.468)">
            <g id="Grupo_1187287" data-name="Grupo 1187287">
              <path id="Trazado_1274616" data-name="Trazado 1274616" d="M147.318,108.582v-4.264a2.352,2.352,0,1,0,.014,4.642C147.324,108.835,147.318,108.709,147.318,108.582Z" transform="translate(-144.605 -104.289)" fill="#f9c1a8"/>
            </g>
          </g>
          <g id="Grupo_1187290" data-name="Grupo 1187290" transform="translate(26.006 28.712)">
            <g id="Grupo_1187289" data-name="Grupo 1187289">
              <path id="Trazado_1274617" data-name="Trazado 1274617" d="M160,160.407a2.223,2.223,0,0,0-1.677-2.032l-4.374-1.1-1.546-.762a1.946,1.946,0,0,1-1.085-1.745v-.959a5.594,5.594,0,0,1-5.19.084v.875a1.946,1.946,0,0,1-1.085,1.745l-1.4.689a1.912,1.912,0,0,1-1.944,2.872h0a4.6,4.6,0,0,1-2.394,3.722v.78a1.655,1.655,0,0,0,1.081,1.518l1.061.523,3.56.9a1.809,1.809,0,0,1,1.364,1.653l.178,3.253H160.01a.618.618,0,0,0,.617-.652Z" transform="translate(-139.312 -153.808)" fill="#70d6f9"/>
            </g>
          </g>
          <g id="Grupo_1187292" data-name="Grupo 1187292" transform="translate(31.499 28.712)">
            <g id="Grupo_1187291" data-name="Grupo 1187291">
              <path id="Trazado_1274618" data-name="Trazado 1274618" d="M176.337,156.512a1.946,1.946,0,0,1-1.085-1.745v-.959a5.594,5.594,0,0,1-5.19.084v.875a1.946,1.946,0,0,1-1.085,1.745l-.243.12a4.4,4.4,0,0,0,7.846,0Z" transform="translate(-168.734 -153.808)" fill="#f9c1a8"/>
            </g>
          </g>
          <g id="Grupo_1187295" data-name="Grupo 1187295" transform="translate(29.24 16.346)">
            <g id="Grupo_1187294" data-name="Grupo 1187294">
              <g id="Grupo_1187293" data-name="Grupo 1187293">
                <path id="Trazado_1274619" data-name="Trazado 1274619" d="M168.834,89.863a.767.767,0,0,0-.744-.753,5.434,5.434,0,0,1-3.734-1.327.77.77,0,0,0-1.143.071,5.6,5.6,0,0,1-5.651,1.842.77.77,0,0,0-.643.156.761.761,0,0,0-.282.6v4.531a6.1,6.1,0,0,0,12.2,0V89.863Zm-.932,5.115a5.166,5.166,0,0,1-10.331,0v-4.33a6.58,6.58,0,0,0,6.263-2.077,6.359,6.359,0,0,0,4.068,1.466Z" transform="translate(-156.637 -87.563)"/>
              </g>
            </g>
          </g>
          <g id="Grupo_1187299" data-name="Grupo 1187299" transform="translate(27.412 11.099)">
            <g id="Grupo_1187298" data-name="Grupo 1187298">
              <g id="Grupo_1187297" data-name="Grupo 1187297">
                <g id="Grupo_1187296" data-name="Grupo 1187296">
                  <path id="Trazado_1274620" data-name="Trazado 1274620" d="M159.177,60.571a3.647,3.647,0,0,0-1.492.321,3.7,3.7,0,0,0-2.91-1.437h-1.652a6.288,6.288,0,0,0-6.281,6.281v2.605a.467.467,0,0,0,.758.364,1.863,1.863,0,0,1,1.176-.413,1.912,1.912,0,0,1,.29.023.467.467,0,0,0,.538-.461v-.066a6.582,6.582,0,0,0,6.263-2.077,6.359,6.359,0,0,0,4.068,1.466v.677a.467.467,0,0,0,.538.461,1.912,1.912,0,0,1,.29-.023,1.875,1.875,0,0,1,1.307.529.467.467,0,0,0,.791-.336v-4.23a3.688,3.688,0,0,0-3.684-3.684Zm2.751,7.039a2.8,2.8,0,0,0-1.059-.25V67a.767.767,0,0,0-.744-.753,5.434,5.434,0,0,1-3.734-1.327.77.77,0,0,0-1.143.071,5.6,5.6,0,0,1-5.651,1.842.77.77,0,0,0-.643.156.759.759,0,0,0-.248.367,2.818,2.818,0,0,0-.929.184V65.735a5.353,5.353,0,0,1,5.347-5.347h1.652a2.77,2.77,0,0,1,2.359,1.348.467.467,0,0,0,.64.161,2.741,2.741,0,0,1,4.154,2.358Z" transform="translate(-146.842 -59.455)"/>
                </g>
              </g>
            </g>
          </g>
          <g id="Grupo_1187301" data-name="Grupo 1187301" transform="translate(42.756 37.517)">
            <g id="Grupo_1187300" data-name="Grupo 1187300">
              <path id="Trazado_1274621" data-name="Trazado 1274621" d="M229.506,200.974a.467.467,0,0,0-.467.467v9.193a.467.467,0,1,0,.933,0v-9.193A.467.467,0,0,0,229.506,200.974Z" transform="translate(-229.039 -200.974)"/>
            </g>
          </g>
          <g id="Grupo_1187303" data-name="Grupo 1187303" transform="translate(27.154 37.517)">
            <g id="Grupo_1187302" data-name="Grupo 1187302">
              <path id="Trazado_1274622" data-name="Trazado 1274622" d="M145.926,200.974a.467.467,0,0,0-.467.467v3.194a.467.467,0,0,0,.933,0v-3.194A.467.467,0,0,0,145.926,200.974Z" transform="translate(-145.459 -200.974)"/>
            </g>
          </g>
          <g id="Grupo_1187306" data-name="Grupo 1187306" transform="translate(40.491 19.002)">
            <g id="Grupo_1187305" data-name="Grupo 1187305">
              <g id="Grupo_1187304" data-name="Grupo 1187304">
                <path id="Trazado_1274623" data-name="Trazado 1274623" d="M217.749,101.79a2.847,2.847,0,0,0-.433.034.467.467,0,0,0-.4.461v4.264c0,.1,0,.213-.013.346a.467.467,0,0,0,.392.492,2.817,2.817,0,1,0,.45-5.6Zm.105,4.7v-3.764a1.885,1.885,0,0,1,0,3.764Z" transform="translate(-216.906 -101.79)"/>
              </g>
            </g>
          </g>
          <g id="Grupo_1187309" data-name="Grupo 1187309" transform="translate(26.528 19.002)">
            <g id="Grupo_1187308" data-name="Grupo 1187308">
              <g id="Grupo_1187307" data-name="Grupo 1187307">
                <path id="Trazado_1274624" data-name="Trazado 1274624" d="M145.751,106.549v-4.264a.467.467,0,0,0-.4-.461,2.818,2.818,0,1,0-.433,5.6,2.812,2.812,0,0,0,.45-.039.467.467,0,0,0,.392-.492C145.756,106.761,145.751,106.651,145.751,106.549Zm-.933-.059a1.885,1.885,0,0,1,0-3.764Z" transform="translate(-142.105 -101.789)"/>
              </g>
            </g>
          </g>
          <g id="Grupo_1187314" data-name="Grupo 1187314" transform="translate(29.944 28.437)">
            <g id="Grupo_1187311" data-name="Grupo 1187311" transform="translate(0 0.025)">
              <g id="Grupo_1187310" data-name="Grupo 1187310">
                <path id="Trazado_1274625" data-name="Trazado 1274625" d="M163.287,152.469a.467.467,0,0,0-.467.467v.742A1.47,1.47,0,0,1,162,155l-1.331.656a.467.467,0,1,0,.413.837l1.331-.656a2.4,2.4,0,0,0,1.346-2.164v-.742A.467.467,0,0,0,163.287,152.469Z" transform="translate(-160.404 -152.469)"/>
              </g>
            </g>
            <g id="Grupo_1187313" data-name="Grupo 1187313" transform="translate(2.84)">
              <g id="Grupo_1187312" data-name="Grupo 1187312">
                <path id="Trazado_1274626" data-name="Trazado 1274626" d="M190.621,170.541,190,159.181a2.678,2.678,0,0,0-2.029-2.459l-4.326-1.089-1.5-.74a1.47,1.47,0,0,1-.825-1.327V152.8a.467.467,0,1,0-.933,0v.767a2.4,2.4,0,0,0,1.346,2.164l1.546.762a.466.466,0,0,0,.092.034l4.374,1.1a1.748,1.748,0,0,1,1.325,1.6l.623,11.359a.152.152,0,0,1-.151.16H176.084a.467.467,0,0,0,0,.933h13.454a1.084,1.084,0,0,0,1.083-1.145Z" transform="translate(-175.617 -152.333)"/>
              </g>
            </g>
          </g>
          <g id="Grupo_1187316" data-name="Grupo 1187316" transform="translate(31.095 31.187)">
            <g id="Grupo_1187315" data-name="Grupo 1187315">
              <path id="Trazado_1274627" data-name="Trazado 1274627" d="M174.972,167.151a.467.467,0,0,0-.636.177,3.935,3.935,0,0,1-6.89-.025.467.467,0,1,0-.816.452,4.869,4.869,0,0,0,8.519.03A.466.466,0,0,0,174.972,167.151Z" transform="translate(-166.571 -167.063)"/>
            </g>
          </g>
          <g id="Grupo_1187318" data-name="Grupo 1187318" transform="translate(33.439 24.94)">
            <g id="Grupo_1187317" data-name="Grupo 1187317">
              <path id="Trazado_1274628" data-name="Trazado 1274628" d="M183,133.709a.467.467,0,0,0-.657.058,1.684,1.684,0,0,1-2.393,0,.467.467,0,0,0-.716.6,2.611,2.611,0,0,0,3.824,0A.467.467,0,0,0,183,133.709Z" transform="translate(-179.128 -133.6)"/>
            </g>
          </g>
          <g id="Grupo_1187320" data-name="Grupo 1187320" transform="translate(37.039 21.292)">
            <g id="Grupo_1187319" data-name="Grupo 1187319">
              <path id="Trazado_1274629" data-name="Trazado 1274629" d="M199.152,114.06a.741.741,0,1,0,.741.741A.741.741,0,0,0,199.152,114.06Z" transform="translate(-198.411 -114.06)"/>
            </g>
          </g>
          <g id="Grupo_1187322" data-name="Grupo 1187322" transform="translate(32.416 21.292)">
            <g id="Grupo_1187321" data-name="Grupo 1187321">
              <path id="Trazado_1274630" data-name="Trazado 1274630" d="M174.39,114.06a.741.741,0,1,0,.741.741A.741.741,0,0,0,174.39,114.06Z" transform="translate(-173.649 -114.06)"/>
            </g>
          </g>
          <g id="Grupo_1187324" data-name="Grupo 1187324" transform="translate(13.517 21.666)">
            <g id="Grupo_1187323" data-name="Grupo 1187323">
              <path id="Trazado_1274631" data-name="Trazado 1274631" d="M73.152,116.06a.741.741,0,1,0,.741.741A.741.741,0,0,0,73.152,116.06Z" transform="translate(-72.411 -116.06)"/>
            </g>
          </g>
          <g id="Grupo_1187326" data-name="Grupo 1187326" transform="translate(8.895 21.666)">
            <g id="Grupo_1187325" data-name="Grupo 1187325">
              <path id="Trazado_1274632" data-name="Trazado 1274632" d="M48.39,116.06a.741.741,0,1,0,.741.741A.741.741,0,0,0,48.39,116.06Z" transform="translate(-47.649 -116.06)"/>
            </g>
          </g>
          <g id="Grupo_1187328" data-name="Grupo 1187328" transform="translate(19.244 28.657)">
            <g id="Grupo_1187327" data-name="Grupo 1187327">
              <path id="Trazado_1274633" data-name="Trazado 1274633" d="M111.754,155.537h-.005a4.354,4.354,0,0,1-3.51-1.773.617.617,0,0,0-1,0,4.354,4.354,0,0,1-3.51,1.773l-.136,0a.491.491,0,0,0-.506.492v3.5a4.584,4.584,0,0,0,9.167,0V156.03A.5.5,0,0,0,111.754,155.537Z" transform="translate(-103.09 -153.51)" fill="#f9c1a8"/>
            </g>
          </g>
          <g id="Grupo_1187330" data-name="Grupo 1187330" transform="translate(17.756 23.791)">
            <g id="Grupo_1187329" data-name="Grupo 1187329">
              <path id="Trazado_1274634" data-name="Trazado 1274634" d="M101.255,127.447a6.138,6.138,0,0,0-6.138,6.138v1.666a1.9,1.9,0,0,1,1.488-.4v-.027a.491.491,0,0,1,.506-.492l.136,0a4.354,4.354,0,0,0,3.51-1.773.617.617,0,0,1,1,0,4.354,4.354,0,0,0,3.51,1.773h.005a.5.5,0,0,1,.5.493v.023a1.9,1.9,0,0,1,1.621.514v-1.784A6.138,6.138,0,0,0,101.255,127.447Z" transform="translate(-95.117 -127.447)" fill="#414344"/>
            </g>
          </g>
          <g id="Grupo_1187332" data-name="Grupo 1187332" transform="translate(28.4 31.177)">
            <g id="Grupo_1187331" data-name="Grupo 1187331">
              <path id="Trazado_1274635" data-name="Trazado 1274635" d="M152.44,167.009a1.911,1.911,0,0,0-.294.023v3.47c0,.1,0,.206-.012.307a1.913,1.913,0,1,0,.306-3.8Z" transform="translate(-152.134 -167.009)" fill="#f9c1a8"/>
            </g>
          </g>
          <g id="Grupo_1187334" data-name="Grupo 1187334" transform="translate(17.036 31.177)">
            <g id="Grupo_1187333" data-name="Grupo 1187333">
              <path id="Trazado_1274636" data-name="Trazado 1274636" d="M93.47,170.5v-3.47a1.914,1.914,0,1,0,.011,3.777C93.475,170.708,93.47,170.606,93.47,170.5Z" transform="translate(-91.262 -167.009)" fill="#f9c1a8"/>
            </g>
          </g>
          <g id="Grupo_1187336" data-name="Grupo 1187336" transform="translate(14.539 38.699)">
            <g id="Grupo_1187335" data-name="Grupo 1187335">
              <path id="Trazado_1274637" data-name="Trazado 1274637" d="M96.417,212.676a1.809,1.809,0,0,0-1.364-1.653l-3.56-.9-1.258-.62a1.583,1.583,0,0,1-.883-1.42v-.78a4.552,4.552,0,0,1-4.223.069v.712a1.584,1.584,0,0,1-.883,1.42l-1.258.62-3.56.9a1.809,1.809,0,0,0-1.364,1.654l-.178,3.253H96.595Z" transform="translate(-77.884 -207.306)" fill="#f5c84c"/>
            </g>
          </g>
          <g id="Grupo_1187338" data-name="Grupo 1187338" transform="translate(20.702 38.699)">
            <g id="Grupo_1187337" data-name="Grupo 1187337">
              <path id="Trazado_1274638" data-name="Trazado 1274638" d="M117.085,209.507a1.583,1.583,0,0,1-.883-1.42v-.78a4.552,4.552,0,0,1-4.223.069v.712a1.584,1.584,0,0,1-.883,1.42l-.2.1a3.583,3.583,0,0,0,6.385,0Z" transform="translate(-110.898 -207.306)" fill="#f9c1a8"/>
            </g>
          </g>
          <g id="Grupo_1187340" data-name="Grupo 1187340" transform="translate(29.776 44.52)">
            <g id="Grupo_1187339" data-name="Grupo 1187339">
              <path id="Trazado_1274639" data-name="Trazado 1274639" d="M159.975,238.487a.467.467,0,0,0-.467.467v2.287a.467.467,0,0,0,.933,0v-2.287A.467.467,0,0,0,159.975,238.487Z" transform="translate(-159.508 -238.487)"/>
            </g>
          </g>
          <g id="Grupo_1187342" data-name="Grupo 1187342" transform="translate(17.079 44.52)">
            <g id="Grupo_1187341" data-name="Grupo 1187341">
              <path id="Trazado_1274640" data-name="Trazado 1274640" d="M91.959,238.487a.467.467,0,0,0-.467.467v2.287a.467.467,0,0,0,.933,0v-2.287A.467.467,0,0,0,91.959,238.487Z" transform="translate(-91.492 -238.487)"/>
            </g>
          </g>
          <g id="Grupo_1187344" data-name="Grupo 1187344" transform="translate(28.021 30.71)">
            <g id="Grupo_1187343" data-name="Grupo 1187343">
              <path id="Trazado_1274641" data-name="Trazado 1274641" d="M150.788,164.509a2.321,2.321,0,0,0-.269.016.467.467,0,1,0,.108.927,1.4,1.4,0,0,1,.161-.01,1.447,1.447,0,0,1,0,2.894,1.3,1.3,0,0,1-.16-.011.467.467,0,1,0-.116.926,2.216,2.216,0,0,0,.276.018,2.38,2.38,0,0,0,0-4.761Z" transform="translate(-150.102 -164.509)"/>
            </g>
          </g>
          <g id="Grupo_1187346" data-name="Grupo 1187346" transform="translate(16.57 30.71)">
            <g id="Grupo_1187345" data-name="Grupo 1187345">
              <path id="Trazado_1274642" data-name="Trazado 1274642" d="M91.783,168.747a.466.466,0,0,0-.511-.417c-.042,0-.085.007-.128.007a1.447,1.447,0,0,1,0-2.894c.039,0,.077,0,.115.005a.467.467,0,1,0,.08-.93c-.064-.005-.129-.008-.195-.008a2.38,2.38,0,0,0,0,4.761,2.138,2.138,0,0,0,.222-.012A.467.467,0,0,0,91.783,168.747Z" transform="translate(-88.763 -164.509)"/>
            </g>
          </g>
          <g id="Grupo_1187348" data-name="Grupo 1187348" transform="translate(14.072 38.385)">
            <g id="Grupo_1187347" data-name="Grupo 1187347">
              <path id="Trazado_1274643" data-name="Trazado 1274643" d="M94.848,211.284a2.266,2.266,0,0,0-1.716-2.08l-3.512-.884-1.214-.6a1.11,1.11,0,0,1-.623-1v-.627a.467.467,0,0,0-.933,0v.627a2.037,2.037,0,0,0,1.143,1.839l1.258.62a.477.477,0,0,0,.092.034l3.56.9a1.335,1.335,0,0,1,1.012,1.226l.152,2.761H76.342l.151-2.76a1.336,1.336,0,0,1,1.012-1.227l3.56-.9a.466.466,0,0,0,.092-.034l1.258-.62a2.037,2.037,0,0,0,1.144-1.839v-.55a.467.467,0,0,0-.933,0v.55a1.109,1.109,0,0,1-.623,1l-1.214.6-3.512.884a2.266,2.266,0,0,0-1.716,2.081l-.178,3.253a.467.467,0,0,0,.466.492H94.56a.467.467,0,0,0,.466-.492Z" transform="translate(-75.382 -205.626)"/>
            </g>
          </g>
          <g id="Grupo_1187350" data-name="Grupo 1187350" transform="translate(20.313 40.635)">
            <g id="Grupo_1187349" data-name="Grupo 1187349">
              <path id="Trazado_1274644" data-name="Trazado 1274644" d="M115.759,217.736a.467.467,0,0,0-.635.18,3.115,3.115,0,0,1-5.439.032.467.467,0,0,0-.81.464,4.049,4.049,0,0,0,7.063-.042A.467.467,0,0,0,115.759,217.736Z" transform="translate(-108.814 -217.677)"/>
            </g>
          </g>
          <g id="Grupo_1187352" data-name="Grupo 1187352" transform="translate(22.194 35.542)">
            <g id="Grupo_1187351" data-name="Grupo 1187351">
              <path id="Trazado_1274645" data-name="Trazado 1274645" d="M122.188,190.5a.467.467,0,0,0-.657.058,1.284,1.284,0,0,1-1.814,0,.467.467,0,1,0-.715.6,2.211,2.211,0,0,0,3.245,0A.467.467,0,0,0,122.188,190.5Z" transform="translate(-118.892 -190.395)"/>
            </g>
          </g>
          <g id="Grupo_1187354" data-name="Grupo 1187354" transform="translate(25.21 32.661)">
            <g id="Grupo_1187353" data-name="Grupo 1187353">
              <path id="Trazado_1274646" data-name="Trazado 1274646" d="M135.652,174.96a.6.6,0,1,0,.6.6A.6.6,0,0,0,135.652,174.96Z" transform="translate(-135.049 -174.96)"/>
            </g>
          </g>
          <g id="Grupo_1187356" data-name="Grupo 1187356" transform="translate(21.449 32.661)">
            <g id="Grupo_1187355" data-name="Grupo 1187355">
              <path id="Trazado_1274647" data-name="Trazado 1274647" d="M115.5,174.96a.6.6,0,1,0,.6.6A.6.6,0,0,0,115.5,174.96Z" transform="translate(-114.898 -174.96)"/>
            </g>
          </g>
          <g id="Grupo_1187358" data-name="Grupo 1187358" transform="translate(18.778 28.19)">
            <g id="Grupo_1187357" data-name="Grupo 1187357">
              <path id="Trazado_1274648" data-name="Trazado 1274648" d="M110.409,153.322a.95.95,0,0,0-.69-.284,3.964,3.964,0,0,1-3.139-1.583,1.084,1.084,0,0,0-1.748,0,3.913,3.913,0,0,1-3.134,1.583l-.121,0a.957.957,0,0,0-.987.958v3.5a5.05,5.05,0,0,0,10.1,0V154a.948.948,0,0,0-.28-.675Zm-.653,4.169a4.117,4.117,0,1,1-8.234,0v-3.5s0-.012.024-.025l.151,0a4.85,4.85,0,0,0,3.885-1.962.151.151,0,0,1,.247,0,4.85,4.85,0,0,0,3.885,1.962h.006c.015,0,.024.006.036.026Z" transform="translate(-100.589 -151.012)"/>
            </g>
          </g>
          <g id="Grupo_1187360" data-name="Grupo 1187360" transform="translate(17.289 23.325)">
            <g id="Grupo_1187359" data-name="Grupo 1187359">
              <path id="Trazado_1274649" data-name="Trazado 1274649" d="M99.222,124.947a6.613,6.613,0,0,0-6.605,6.6v1.572a.467.467,0,0,0,.933,0v-1.572a5.672,5.672,0,0,1,11.343,0v1.6a.467.467,0,1,0,.933,0v-1.6a6.612,6.612,0,0,0-6.6-6.6Z" transform="translate(-92.617 -124.947)"/>
            </g>
          </g>
          <g id="Grupo_1187362" data-name="Grupo 1187362" transform="translate(18.53 4.694)">
            <g id="Grupo_1187361" data-name="Grupo 1187361">
              <path id="Trazado_1274650" data-name="Trazado 1274650" d="M109.035,25.931a3.042,3.042,0,0,0-4.208.127.284.284,0,0,1-.4,0,3.042,3.042,0,0,0-4.208-.127,3,3,0,0,0-.079,4.312l3.869,3.869a.875.875,0,0,0,1.238,0l3.869-3.869A3,3,0,0,0,109.035,25.931Z" transform="translate(-99.261 -25.146)" fill="#fc657e"/>
            </g>
          </g>
          <g id="Grupo_1187365" data-name="Grupo 1187365" transform="translate(18.063 4.235)">
            <g id="Grupo_1187364" data-name="Grupo 1187364">
              <g id="Grupo_1187363" data-name="Grupo 1187363">
                <path id="Trazado_1274651" data-name="Trazado 1274651" d="M107.318,23.589a3.526,3.526,0,0,0-4.727.016,3.526,3.526,0,0,0-4.727-.016,3.462,3.462,0,0,0-.091,4.983l3.869,3.869a1.342,1.342,0,0,0,1.9,0l3.869-3.869a3.462,3.462,0,0,0-.09-4.983Zm-.57,4.323-3.869,3.869a.419.419,0,0,1-.578,0l-3.869-3.869a2.529,2.529,0,0,1,.067-3.64,2.476,2.476,0,0,1,1.7-.654,2.636,2.636,0,0,1,1.864.77.753.753,0,0,0,1.062,0,2.588,2.588,0,0,1,3.56-.115,2.529,2.529,0,0,1,.067,3.64Z" transform="translate(-96.759 -22.687)"/>
              </g>
            </g>
          </g>
          <g id="Grupo_1187367" data-name="Grupo 1187367" transform="translate(14.95 1.307)">
            <g id="Grupo_1187366" data-name="Grupo 1187366">
              <path id="Trazado_1274652" data-name="Trazado 1274652" d="M83.511,8.658A2.072,2.072,0,0,1,81.85,7.031a.037.037,0,0,0-.074,0,2.072,2.072,0,0,1-1.661,1.627.036.036,0,0,0,0,.072,2.072,2.072,0,0,1,1.661,1.627.037.037,0,0,0,.074,0,2.072,2.072,0,0,1,1.661-1.627.036.036,0,0,0,0-.072Z" transform="translate(-80.083 -7)" fill="#f5c84c"/>
            </g>
          </g>
          <g id="Grupo_1187369" data-name="Grupo 1187369" transform="translate(31.751 7.138)">
            <g id="Grupo_1187368" data-name="Grupo 1187368">
              <path id="Trazado_1274653" data-name="Trazado 1274653" d="M172.288,39.306a1.333,1.333,0,0,1-1.068-1.046.024.024,0,0,0-.047,0,1.332,1.332,0,0,1-1.068,1.046.023.023,0,0,0,0,.046,1.333,1.333,0,0,1,1.068,1.046.024.024,0,0,0,.047,0,1.332,1.332,0,0,1,1.068-1.046A.023.023,0,0,0,172.288,39.306Z" transform="translate(-170.084 -38.24)" fill="#70d6f9"/>
            </g>
          </g>
          <g id="Grupo_1187371" data-name="Grupo 1187371" transform="translate(0.565 12.473)">
            <g id="Grupo_1187370" data-name="Grupo 1187370">
              <path id="Trazado_1274654" data-name="Trazado 1274654" d="M5.663,67.839H5.228V67.4a.589.589,0,1,0-1.179,0v.435H3.614a.589.589,0,1,0,0,1.179h.435v.435a.589.589,0,0,0,1.179,0v-.435h.435a.589.589,0,1,0,0-1.179Z" transform="translate(-3.025 -66.815)" fill="#fc657e"/>
            </g>
          </g>
          <g id="Grupo_1187373" data-name="Grupo 1187373" transform="translate(19.99)">
            <g id="Grupo_1187372" data-name="Grupo 1187372">
              <circle id="Elipse_12262" data-name="Elipse 12262" cx="0.63" cy="0.63" r="0.63" fill="#87d147"/>
            </g>
          </g>
          <g id="Grupo_1187375" data-name="Grupo 1187375" transform="translate(0 18.481)">
            <g id="Grupo_1187374" data-name="Grupo 1187374">
              <path id="Trazado_1274655" data-name="Trazado 1274655" d="M.63,99a.63.63,0,1,0,.63.63A.63.63,0,0,0,.63,99Z" transform="translate(0 -99)" fill="#f5c84c"/>
            </g>
          </g>
        </g>
      </g>
    </g>
  </g>
</svg>
