<svg xmlns="http://www.w3.org/2000/svg" xmlns:xlink="http://www.w3.org/1999/xlink" width="98" height="98" viewBox="0 0 98 98">
  <defs>
    <filter id="Trazado_874925" x="0" y="0" width="98" height="98" filterUnits="userSpaceOnUse">
      <feOffset dy="3" input="SourceAlpha"/>
      <feGaussianBlur stdDeviation="3" result="blur"/>
      <feFlood flood-opacity="0.161"/>
      <feComposite operator="in" in2="blur"/>
      <feComposite in="SourceGraphic"/>
    </filter>
  </defs>
  <g id="Grupo_1188247" data-name="Grupo 1188247" transform="translate(-281.051 -7233.999)">
    <g id="Grupo_1186569" data-name="Grupo 1186569" transform="translate(5.051 1142.592)">
      <g id="Grupo_1181903" data-name="Grupo 1181903">
        <g id="Grupo_1181438" data-name="Grupo 1181438">
          <g id="Grupo_1111314" data-name="Grupo 1111314" transform="translate(-734.73 3020.407)">
            <g transform="matrix(1, 0, 0, 1, 1010.73, 3071)" filter="url(#Trazado_874925)">
              <g id="Trazado_874925-2" data-name="Trazado 874925" transform="translate(9 6)" fill="#eab03c">
                <path d="M 39.99997329711914 78.50040435791016 C 34.80184936523438 78.50040435791016 29.76000595092773 77.48268127441406 25.01450729370117 75.47550201416016 C 20.43013954162598 73.53648376464844 16.3126392364502 70.76027679443359 12.7763843536377 67.22402191162109 C 9.240128517150879 63.68776702880859 6.463928699493408 59.57027053833008 4.524906635284424 54.98590087890625 C 2.517728805541992 50.24040222167969 1.500006675720215 45.19855880737305 1.500006675720215 40.00043487548828 C 1.500006675720215 34.80185699462891 2.517728805541992 29.76001358032227 4.524906635284424 25.01451301574707 C 6.463928699493408 20.43013572692871 9.240128517150879 16.31263542175293 12.7763843536377 12.77637958526611 C 16.3126392364502 9.240124702453613 20.43013954162598 6.463935375213623 25.01450729370117 4.52490234375 C 29.76000595092773 2.517724514007568 34.80184936523438 1.500002145767212 39.99997329711914 1.500002145767212 C 45.19809722900391 1.500002145767212 50.23994064331055 2.517724514007568 54.98543930053711 4.52490234375 C 59.56981658935547 6.463935375213623 63.68731689453125 9.240124702453613 67.22357177734375 12.77637958526611 C 70.75982666015625 16.31263542175293 73.53601837158203 20.43013572692871 75.47505187988281 25.01451301574707 C 77.48223114013672 29.76001358032227 78.49995422363281 34.80185699462891 78.49995422363281 39.99998092651367 C 78.49995422363281 45.19855880737305 77.48223114013672 50.24040222167969 75.47505187988281 54.98590087890625 C 73.53601837158203 59.57027053833008 70.75982666015625 63.68776702880859 67.22357177734375 67.22402191162109 C 63.68731689453125 70.76027679443359 59.56981658935547 73.53648376464844 54.98543930053711 75.47550201416016 C 50.23994064331055 77.48268127441406 45.19809722900391 78.50040435791016 39.99997329711914 78.50040435791016 Z" stroke="none"/>
                <path d="M 39.99997329711914 3 C 35.00369262695312 3 30.15843963623047 3.977851867675781 25.59883880615234 5.906417846679688 C 21.19326782226562 7.769813537597656 17.23602676391602 10.43805694580078 13.83704376220703 13.83704376220703 C 10.43805694580078 17.23601531982422 7.769813537597656 21.19325637817383 5.906410217285156 25.59882736206055 C 3.977851867675781 30.15844345092773 3 35.00368118286133 3 40.00042724609375 C 3 44.99672317504883 3.977851867675781 49.84196472167969 5.906410217285156 54.40157318115234 C 7.769813537597656 58.80714797973633 10.43805694580078 62.76438903808594 13.83704376220703 66.16336059570312 C 17.23602676391602 69.56234741210938 21.19326782226562 72.2305908203125 25.59883880615234 74.09398651123047 C 30.15843963623047 76.02255249023438 35.00369262695312 77.00040435791016 39.99997329711914 77.00040435791016 C 44.99625396728516 77.00040435791016 49.84150695800781 76.02255249023438 54.40110778808594 74.09398651123047 C 58.80667877197266 72.2305908203125 62.76391983032227 69.56234741210938 66.16290283203125 66.16336059570312 C 69.5618896484375 62.76438903808594 72.23013305664062 58.80714797973633 74.09353637695312 54.40157318115234 C 76.0220947265625 49.84196472167969 76.99994659423828 44.99672317504883 76.99994659423828 39.99997711181641 C 76.99994659423828 35.00368118286133 76.0220947265625 30.15844345092773 74.09353637695312 25.59882736206055 C 72.23013305664062 21.19325637817383 69.5618896484375 17.23601531982422 66.16290283203125 13.83704376220703 C 62.76391983032227 10.43805694580078 58.80667877197266 7.769813537597656 54.40110778808594 5.906417846679688 C 49.84150695800781 3.977851867675781 44.99625396728516 3 39.99997329711914 3 M 39.99997329711914 0 C 62.09134674072266 0 79.99994659423828 17.90858840942383 79.99994659423828 39.99997711181641 L 79.99994659423828 40.00042724609375 C 79.99994659423828 62.09181594848633 62.09134674072266 80.00040435791016 39.99997329711914 80.00040435791016 C 17.90859985351562 80.00040435791016 0 62.09181594848633 0 40.00042724609375 L 0 39.99997711181641 C 0 17.90858840942383 17.90859985351562 0 39.99997329711914 0 Z" stroke="none" fill="#fff"/>
              </g>
            </g>
          </g>
        </g>
      </g>
    </g>
    <g id="pensar-pregunta" transform="translate(306.051 7256)">
      <g id="Grupo_1188239" data-name="Grupo 1188239" transform="translate(0.709 0.748)">
        <path id="Trazado_1275942" data-name="Trazado 1275942" d="M48.972,401.069s-1.337,2.219-1.926,3.295l-9.329,3.582H17.6l-3.605-2.333V400.9a41.227,41.227,0,0,1,5.666-1.784l2.423-.629,2.689-.632,11.87,1.167,2.4-1.046c.808.21,3.154.781,3.961.991C45.029,399.5,47.226,399.847,48.972,401.069Z" transform="translate(-13.376 -360.968)" fill="#8ac9fe"/>
        <path id="Trazado_1275943" data-name="Trazado 1275943" d="M11.719,435.645v1.448H7.784a.283.283,0,0,1-.284-.284V430.63a.284.284,0,0,1,.111-.225c.068-.053.136-.1.189-.143.1-.074.208-.145.314-.212l.214.107A6.137,6.137,0,0,1,11.719,435.645Z" transform="translate(-7.5 -390.116)" fill="#60b7ff"/>
        <path id="Trazado_1275944" data-name="Trazado 1275944" d="M357.295,438.118v.285a.284.284,0,0,1-.284.284h-6.5v-4.079a6.124,6.124,0,0,1,2.636-2.541l.512-.256.065.045.105.077A7.662,7.662,0,0,1,357.295,438.118Z" transform="translate(-318.061 -391.709)" fill="#60b7ff"/>
        <path id="Trazado_1275945" data-name="Trazado 1275945" d="M92.114,18.381c-1.968,3.728-3.95,7.216-8.454,7.435l-13.92.041V18.644a9.065,9.065,0,0,1,1.409-4.871,12.834,12.834,0,0,1,4.525-4.306A12.053,12.053,0,0,1,81.585,7.91h.5a12,12,0,0,1,4.963,1.077C90.977,11.991,93.157,16.406,92.114,18.381Z" transform="translate(-63.852 -7.91)" fill="#73788c"/>
        <path id="Trazado_1275946" data-name="Trazado 1275946" d="M227.156,28.957V36.1l-10.266.029A12.889,12.889,0,0,0,220.274,19.3a12.74,12.74,0,0,1,5.474,4.786A8.92,8.92,0,0,1,226.8,26.41,9.167,9.167,0,0,1,227.156,28.957Z" transform="translate(-197.082 -18.223)" fill="#5e6577"/>
        <path id="Trazado_1275947" data-name="Trazado 1275947" d="M71.143,194.4a5.254,5.254,0,0,0,4-5.1h0a2.089,2.089,0,0,0-2.089-2.089H48.666a2.089,2.089,0,0,0-2.089,2.089h0a5.254,5.254,0,0,0,4,5.1Z" transform="translate(-42.88 -170.243)" fill="#ffb09e"/>
        <path id="Trazado_1275948" data-name="Trazado 1275948" d="M104.5,126.225a2.027,2.027,0,0,1,2.78,1.177l.892,3.473a1.376,1.376,0,0,0,1.279.94v7.772a6.482,6.482,0,0,1-2.215,4.88l-4.027,3.524a4.322,4.322,0,0,1-2.846,1.069H97.978a4.322,4.322,0,0,1-2.846-1.069l-4.027-3.524a6.482,6.482,0,0,1-2.215-4.88v-7.772a1.377,1.377,0,0,0,1.279-.94l.887-3.459a2.027,2.027,0,0,1,2.792-1.171l.13.062,1.043.4a11.552,11.552,0,0,0,8.265,0l1.043-.4Z" transform="translate(-81.191 -114.857)" fill="#ffcebf"/>
        <g id="Grupo_1188236" data-name="Grupo 1188236" transform="translate(8.681 28.076)">
          <path id="Trazado_1275949" data-name="Trazado 1275949" d="M116.555,316.208l-.35.431-3.809,4.7-1.362-.863a6.381,6.381,0,0,0-3.176-1,5.248,5.248,0,0,1-2.6-.812l-3.371-2.141a1.191,1.191,0,0,1-.554-1.007c0-.013,0-.026,0-.039s.17-.345.255-.506a4.525,4.525,0,0,1,.6-.361c.169.091.624-.335.991-.1l-.766-.486a1.233,1.233,0,0,1-.554-1.033c0-.012,0,.012,0,0,.037-.2.509-.275.593-.437.016-.032-.026-.042.141-.125,0,0,.743-.653,1.109-.42l-.489-.311a1.192,1.192,0,0,1-.555-1.009c0-.013,0-.026,0-.039.006-.172.263-.276.347-.438a1.506,1.506,0,0,1,.4-.354s.729-.408,1.1-.175l-4.685-2.975a1.19,1.19,0,0,1-.422-1.554c.471-.423.773-.53.97-.4l7.542,4.989c2.258,1.209,3.211.3,3.212.293.016-.078.269-.5.286-.577a1.423,1.423,0,0,0,.153-.4.147.147,0,0,0,0-.022c.044-.213.091-.409.14-.591a5.989,5.989,0,0,1,1.032-2.125,2.633,2.633,0,0,1,.469-.518,1.79,1.79,0,0,1,.492-.271,3.572,3.572,0,0,1,1.094.075c.057.036-.709,2.761-.667,3.217,0,0,.13,3.619.152,3.887A2.763,2.763,0,0,0,115.8,315.1Z" transform="translate(-99.264 -304.7)" fill="#ffb09e"/>
        </g>
        <path id="Trazado_1275950" data-name="Trazado 1275950" d="M247.849,428.528H235.133a.083.083,0,0,1-.047-.015l-3.051-2.263a.079.079,0,0,1-.02-.1l3.506-5.555h1.286l10.933,7.2Z" transform="translate(-210.765 -381.551)" fill="#60b7ff"/>
        <path id="Trazado_1275951" data-name="Trazado 1275951" d="M283.4,419.4h-1.881l-12.328-7.938.578-.917a.08.08,0,0,1,.11-.025l13.565,8.734A.079.079,0,0,1,283.4,419.4Z" transform="translate(-244.434 -372.423)" fill="#26a6fe"/>
        <path id="Trazado_1275952" data-name="Trazado 1275952" d="M221.63,404.908l-4.075,5.465a.834.834,0,0,1-1.16.17l-1.413-1.047a.826.826,0,0,1-.171-1.156l4.045-5.423c.527-.429,1.13-1.132,1.4-.932l1.517,1.124C222.023,403.295,222.117,404.1,221.63,404.908Z" transform="translate(-195.051 -364.674)" fill="#eaf6ff"/>
        <path id="Trazado_1275953" data-name="Trazado 1275953" d="M262.682,399.559,261.9,400.6a.906.906,0,0,0-.373-.75l-1.517-1.124a.9.9,0,0,0-.884-.117l.809-1.084a.832.832,0,0,1,1.159-.17l1.414,1.046A.827.827,0,0,1,262.682,399.559Z" transform="translate(-235.325 -360.369)" fill="#d8ecfe"/>
        <g id="Grupo_1188238" data-name="Grupo 1188238" transform="translate(25.434 0.15)">
          <g id="Grupo_1188237" data-name="Grupo 1188237">
            <path id="Trazado_1275954" data-name="Trazado 1275954" d="M293.647,11.7c-.085-.009-.172-.016-.259-.019a.293.293,0,0,1-.227-.123c-.084-.119-.175-.235-.27-.345a4.895,4.895,0,0,0-5.726-1.277.291.291,0,0,1-.259-.009,3.572,3.572,0,0,0-5.083,2.049.28.28,0,0,1-.266.2,4.363,4.363,0,0,0-3.891,6.361.287.287,0,0,1-.087.37,2.786,2.786,0,0,0-.286,4.382.285.285,0,0,1,.087.265,4.029,4.029,0,0,0,.079,1.786c1.889,2.45,5.685,3.083,7.835,3.083,6.15,0,10.034-3.178,10.034-9.328C295.329,17.612,295.329,13.642,293.647,11.7Z" transform="translate(-276.36 -9.5)" fill="#eaf6ff"/>
            <path id="Trazado_1275955" data-name="Trazado 1275955" d="M307.951,41.9a.278.278,0,0,0-.016.289,4.356,4.356,0,0,1-1.762,5.914c-.037.02-.1.052-.161.081a.279.279,0,0,0-.157.224,3.841,3.841,0,0,1-.136.727,0,0,0,0,0,0,0,3.824,3.824,0,0,1-5.359,2.347.28.28,0,0,0-.318.05,4.614,4.614,0,0,1-7.623-2,.281.281,0,0,0-.284-.2,4.094,4.094,0,0,1-4.154-3,11.138,11.138,0,0,0,16.188-13.635,3.927,3.927,0,0,1,3.326,5.137.28.28,0,0,0,.073.288,2.936,2.936,0,0,1,.384,3.769Z" transform="translate(-286.882 -30.515)" fill="#d8ecfe"/>
            <path id="Trazado_1275956" data-name="Trazado 1275956" d="M336.768,61.459c-.982,7.843-5.093,7.735-8.685,7.735a6.637,6.637,0,1,1,8.685-7.735Z" transform="translate(-319.149 -51.873)" fill="#73788c"/>
            <path id="Trazado_1275957" data-name="Trazado 1275957" d="M379.65,112.3a6.663,6.663,0,0,1-8.85,6.263,11.147,11.147,0,0,0,8.685-7.735A6.631,6.631,0,0,1,379.65,112.3Z" transform="translate(-361.866 -101.244)" fill="#5e6577"/>
          </g>
          <path id="Trazado_1275958" data-name="Trazado 1275958" d="M426.323,272.217c0,1.054-1.264,1.518-2.321,1.518-.5,0-.889-.5-1.238-1.005a1.978,1.978,0,0,1-.045-.426,2.046,2.046,0,0,1,3.091-1.75A2.593,2.593,0,0,1,426.323,272.217Z" transform="translate(-408.873 -245.599)" fill="#eaf6ff"/>
          <path id="Trazado_1275959" data-name="Trazado 1275959" d="M427.245,275.049a2.046,2.046,0,0,1-4.045.426,1.916,1.916,0,0,0,3.209-1.4,1.889,1.889,0,0,0-.164-.771A2.032,2.032,0,0,1,427.245,275.049Z" transform="translate(-409.309 -248.344)" fill="#d8ecfe"/>
          <path id="Trazado_1275960" data-name="Trazado 1275960" d="M400.735,335.112a1.357,1.357,0,0,1-1.453,1.212c-.385,0-.694-.2-1.1-.856a1.487,1.487,0,0,1,2.125-1.529A1.644,1.644,0,0,1,400.735,335.112Z" transform="translate(-386.647 -303.111)" fill="#eaf6ff"/>
          <path id="Trazado_1275961" data-name="Trazado 1275961" d="M401.269,336.7a1.486,1.486,0,0,1-2.959.2,1.32,1.32,0,0,0,2.292-.887,1.3,1.3,0,0,0-.167-.641A1.48,1.48,0,0,1,401.269,336.7Z" transform="translate(-386.774 -304.542)" fill="#d8ecfe"/>
        </g>
      </g>
      <g id="Grupo_1188246" data-name="Grupo 1188246" transform="translate(0 0)">
        <path id="Trazado_1275962" data-name="Trazado 1275962" d="M215.575,6.631a.708.708,0,0,1-.524-.23,11.652,11.652,0,0,0-7.234-3.746.709.709,0,1,1,.163-1.41,13.071,13.071,0,0,1,8.118,4.2.71.71,0,0,1-.523,1.189Z" transform="translate(-187.589 -1.123)"/>
        <path id="Trazado_1275963" data-name="Trazado 1275963" d="M62.951,13.81a.71.71,0,0,1-.71-.709v-.411A9.747,9.747,0,0,1,63.76,7.437a13.188,13.188,0,0,1,9.5-6.1.709.709,0,0,1,.172,1.409A11.774,11.774,0,0,0,64.957,8.2a8.331,8.331,0,0,0-1.3,4.489V13.1A.709.709,0,0,1,62.951,13.81Z" transform="translate(-56.353 -1.207)"/>
        <path id="Línea_751" data-name="Línea 751" d="M-6.791-3.644A.709.709,0,0,1-7.5-4.353V-6.791A.709.709,0,0,1-6.791-7.5a.709.709,0,0,1,.709.709v2.437A.71.71,0,0,1-6.791-3.644Z" transform="translate(13.388 21.995)"/>
        <path id="Trazado_1275964" data-name="Trazado 1275964" d="M43.79,188.315a.711.711,0,0,1-.169-.02,5.945,5.945,0,0,1-4.544-5.792,2.8,2.8,0,0,1,2.8-2.8h1.914a.71.71,0,1,1,0,1.419H41.876a1.381,1.381,0,0,0-1.38,1.38,4.529,4.529,0,0,0,3.461,4.413.71.71,0,0,1-.168,1.4Z" transform="translate(-35.38 -162.704)"/>
        <path id="Trazado_1275965" data-name="Trazado 1275965" d="M299.465,226.274a.71.71,0,0,1-.168-1.4,4.541,4.541,0,0,0,3.163-2.79.709.709,0,0,1,1.325.507,5.96,5.96,0,0,1-4.152,3.661A.711.711,0,0,1,299.465,226.274Z" transform="translate(-270.494 -200.663)"/>
        <path id="Trazado_1275966" data-name="Trazado 1275966" d="M83.288,137.269a.709.709,0,0,1-.58-.3,7.157,7.157,0,0,1-1.317-4.149v-7.772a.71.71,0,0,1,.71-.71.666.666,0,0,0,.608-.461l.871-3.405a2.734,2.734,0,0,1,3.785-1.635l.13.062.991.377a10.827,10.827,0,0,0,7.758,0l1.043-.4.125-.061a2.747,2.747,0,0,1,2.722.226.709.709,0,0,1-.806,1.168,1.307,1.307,0,0,0-1.311-.109l-.173.081-1.091.42a12.244,12.244,0,0,1-8.773,0l-1.043-.4-.182-.084a1.317,1.317,0,0,0-1.815.761l-.871,3.405a2.154,2.154,0,0,1-1.257,1.343v7.193a5.745,5.745,0,0,0,1.057,3.331.71.71,0,0,1-.579,1.119Z" transform="translate(-73.691 -107.342)"/>
        <path id="Trazado_1275967" data-name="Trazado 1275967" d="M254.733,208.87a.71.71,0,0,1-.468-1.243l2.017-1.765a5.772,5.772,0,0,0,1.972-4.346V195.14a.71.71,0,1,1,1.419,0v6.376a7.191,7.191,0,0,1-2.457,5.414l-2.017,1.765A.707.707,0,0,1,254.733,208.87Z" transform="translate(-229.992 -176.037)"/>
        <g id="Grupo_1188241" data-name="Grupo 1188241" transform="translate(0 36.658)">
          <g id="Grupo_1188240" data-name="Grupo 1188240">
            <path id="Trazado_1275968" data-name="Trazado 1275968" d="M86.918,389.832a.71.71,0,0,1-.178-1.4l.606-.157,2.533-.745a.709.709,0,1,1,.4,1.361l-2.554.751-.627.163A.711.711,0,0,1,86.918,389.832Z" transform="translate(-78.054 -387.504)"/>
            <path id="Trazado_1275969" data-name="Trazado 1275969" d="M.71,409.178a.71.71,0,0,1-.439-1.267c.11-.086.236-.184.325-.248a13.473,13.473,0,0,1,4.889-1.917.709.709,0,1,1,.333,1.379,12.345,12.345,0,0,0-4.4,1.691c-.076.054-.182.137-.275.21A.707.707,0,0,1,.71,409.178Z" transform="translate(0 -404.002)"/>
            <path id="Trazado_1275970" data-name="Trazado 1275970" d="M7.532,433.042a.71.71,0,0,1-.709-.71v-1.7a4.612,4.612,0,0,0-2.563-4.148l-.694-.347a.71.71,0,0,1,.635-1.269l.694.347a6.023,6.023,0,0,1,3.348,5.417v1.7A.71.71,0,0,1,7.532,433.042Z" transform="translate(-2.872 -421.265)"/>
          </g>
        </g>
        <path id="Elipse_12263" data-name="Elipse 12263" d="M-4.745-7.5A2.759,2.759,0,0,1-1.991-4.743,2.759,2.759,0,0,1-4.745-1.986,2.759,2.759,0,0,1-7.5-4.743,2.759,2.759,0,0,1-4.745-7.5Zm0,4.1A1.338,1.338,0,0,0-3.41-4.743,1.338,1.338,0,0,0-4.745-6.081,1.338,1.338,0,0,0-6.081-4.743,1.338,1.338,0,0,0-4.745-3.4Z" transform="translate(46.779 32.309)"/>
        <path id="Elipse_12264" data-name="Elipse 12264" d="M-5.3-7.5a2.2,2.2,0,0,1,2.2,2.2A2.2,2.2,0,0,1-5.3-3.1,2.2,2.2,0,0,1-7.5-5.3,2.2,2.2,0,0,1-5.3-7.5Zm0,2.976A.779.779,0,0,0-4.527-5.3.779.779,0,0,0-5.3-6.081a.779.779,0,0,0-.777.779A.779.779,0,0,0-5.3-4.524Z" transform="translate(44.458 38.349)"/>
        <path id="Trazado_1275971" data-name="Trazado 1275971" d="M279.513,23.849a5.3,5.3,0,0,1-5-3.5,4.8,4.8,0,0,1-4.671-5.422,3.519,3.519,0,0,1,.24-5.13,5.1,5.1,0,0,1,4.363-7.1A4.274,4.274,0,0,1,280.258.416a5.589,5.589,0,0,1,6.372,1.551q.1.114.19.234a4.662,4.662,0,0,1,4.1,5.847,3.674,3.674,0,0,1,.432,4.288A5.1,5.1,0,0,1,289.211,19a4.534,4.534,0,0,1-.133.624l0,.015a4.526,4.526,0,0,1-6.079,2.909A5.337,5.337,0,0,1,279.513,23.849ZM275.037,18.9a.71.71,0,0,1,.689.544,3.894,3.894,0,0,0,6.618,1.763.71.71,0,0,1,.864-.131,3.106,3.106,0,0,0,4.505-1.845h0l0-.011a3.148,3.148,0,0,0,.117-.715.71.71,0,0,1,.435-.621,3.706,3.706,0,0,0,2.162-3.352,3.666,3.666,0,0,0-.514-1.876.71.71,0,0,1,.048-.8,2.224,2.224,0,0,0,.466-1.372,2.249,2.249,0,0,0-.782-1.706.709.709,0,0,1-.2-.79A3.232,3.232,0,0,0,286.44,3.6a.71.71,0,0,1-.591-.32,3.921,3.921,0,0,0-.3-.4,4.164,4.164,0,0,0-3.175-1.469,4.119,4.119,0,0,0-1.831.423.71.71,0,0,1-.674-.026,2.855,2.855,0,0,0-4.219,1.755.71.71,0,0,1-.722.533l-.176,0a3.677,3.677,0,0,0-3.148,5.557.709.709,0,0,1-.264.981,2.1,2.1,0,0,0-.287,3.468.71.71,0,0,1,.249.707,3.378,3.378,0,0,0,3.656,4.094A.714.714,0,0,1,275.037,18.9Z" transform="translate(-243.415 0)"/>
        <g id="Grupo_1188243" data-name="Grupo 1188243" transform="translate(29.888 4.449)">
          <path id="Trazado_1275972" data-name="Trazado 1275972" d="M323.31,61.779A7.374,7.374,0,1,1,328,48.715a.709.709,0,1,1-.9,1.094,5.939,5.939,0,1,0,1.754,2.412.709.709,0,1,1,1.32-.52,7.378,7.378,0,0,1-6.861,10.078Z" transform="translate(-315.937 -47.031)"/>
          <g id="Grupo_1188242" data-name="Grupo 1188242" transform="translate(4.895 3.21)">
            <path id="Trazado_1275973" data-name="Trazado 1275973" d="M370.157,87.392a.709.709,0,0,1-.71-.709V85.21a.709.709,0,0,1,.71-.709,1.06,1.06,0,0,0,1.058-1.117,1.059,1.059,0,0,0-2.117.057.71.71,0,0,1-1.419,0,2.478,2.478,0,0,1,4.953-.131,2.459,2.459,0,0,1-.678,1.837,2.488,2.488,0,0,1-1.088.668v.867A.709.709,0,0,1,370.157,87.392Z" transform="translate(-367.679 -80.963)"/>
            <path id="Línea_752" data-name="Línea 752" transform="translate(2.478 7.811)"/>
          </g>
        </g>
        <g id="Grupo_1188244" data-name="Grupo 1188244" transform="translate(12.052 15.669)">
          <path id="Trazado_1275974" data-name="Trazado 1275974" d="M182.875,263.91a2.939,2.939,0,0,1-1.334-.319.709.709,0,1,1,.644-1.264,1.524,1.524,0,0,0,1.379,0,.709.709,0,1,1,.644,1.264A2.939,2.939,0,0,1,182.875,263.91Z" transform="translate(-176.069 -253.11)"/>
          <path id="Línea_753" data-name="Línea 753" d="M-2.928-6.081H-6.791A.709.709,0,0,1-7.5-6.791.709.709,0,0,1-6.791-7.5h3.862a.709.709,0,0,1,.709.709A.709.709,0,0,1-2.928-6.081Z" transform="translate(11.666 20.487)"/>
          <path id="Trazado_1275975" data-name="Trazado 1275975" d="M131.813,167.527a.706.706,0,0,1-.373-.106,3.168,3.168,0,0,0-2.954,0,.709.709,0,1,1-.747-1.206,4.56,4.56,0,0,1,4.448,0,.71.71,0,0,1-.374,1.313Z" transform="translate(-127.403 -165.635)"/>
          <path id="Trazado_1275976" data-name="Trazado 1275976" d="M219.732,181.115a4.286,4.286,0,0,1-2.224-.579.709.709,0,1,1,.747-1.206,3.168,3.168,0,0,0,2.954,0,.709.709,0,1,1,.747,1.206A4.286,4.286,0,0,1,219.732,181.115Z" transform="translate(-208.68 -177.938)"/>
          <path id="Línea_754" data-name="Línea 754" d="M-6.791-4.439A.709.709,0,0,1-7.5-5.149V-6.791A.709.709,0,0,1-6.791-7.5a.709.709,0,0,1,.709.709v1.642A.709.709,0,0,1-6.791-4.439Z" transform="translate(17.843 11.806)"/>
          <path id="Línea_755" data-name="Línea 755" d="M-6.791-4.439A.709.709,0,0,1-7.5-5.149V-6.791A.709.709,0,0,1-6.791-7.5a.709.709,0,0,1,.709.709v1.642A.709.709,0,0,1-6.791-4.439Z" transform="translate(9.351 11.806)"/>
        </g>
        <path id="Trazado_1275977" data-name="Trazado 1275977" d="M295.3,404.85a.709.709,0,0,1-.384-.113l-11.866-7.64a.71.71,0,0,1,.768-1.193l10.7,6.889a7.023,7.023,0,0,0-3.2-4.907,13.25,13.25,0,0,0-4.674-1.757c-.38-.091-.758-.182-1.13-.279-.407-.106-1.151-.309-1.894-.513l-1.056-.288a.709.709,0,1,1,.372-1.369l1.059.289c.736.2,1.473.4,1.876.508.364.095.734.183,1.1.273a14.3,14.3,0,0,1,5.169,1.984,8.4,8.4,0,0,1,3.867,6.8v.6a.71.71,0,0,1-.709.71Z" transform="translate(-255.356 -356.415)"/>
        <path id="Línea_756" data-name="Línea 756" d="M-5.094-4.835a.706.706,0,0,1-.419-.138l-1.7-1.247a.709.709,0,0,1-.152-.992.709.709,0,0,1,.992-.152l1.7,1.247a.709.709,0,0,1,.152.992A.709.709,0,0,1-5.094-4.835Z" transform="translate(30.175 53.27)"/>
        <g id="Grupo_1188245" data-name="Grupo 1188245" transform="translate(32.667 40.187)">
          <path id="Trazado_1275978" data-name="Trazado 1275978" d="M346.029,428.794a.71.71,0,0,1-.622-1.05,6.029,6.029,0,0,1,2.605-2.511l.691-.345a.71.71,0,0,1,.635,1.269l-.691.345a4.617,4.617,0,0,0-1.995,1.923A.709.709,0,0,1,346.029,428.794Z" transform="translate(-345.32 -424.812)"/>
        </g>
        <path id="Trazado_1275979" data-name="Trazado 1275979" d="M104.127,312.552a.706.706,0,0,1-.3-.067,5.613,5.613,0,0,0-2.165-.528,5.937,5.937,0,0,1-2.951-.927l-3.37-2.151a4,4,0,0,1,.574-5.768,1.915,1.915,0,0,1,.485-2.1l-3.129-2a1.91,1.91,0,1,1,2.053-3.222l8.276,5.281a.724.724,0,0,0,.676.058.708.708,0,0,0,.426-.509,7.006,7.006,0,0,1,1.292-3.012,3.232,3.232,0,0,1,.61-.668,2.282,2.282,0,0,1,2.66-.173,1.25,1.25,0,0,1,.328.294,1.19,1.19,0,0,1,.108,1.273l-.467.885a1.661,1.661,0,0,0-.186.927l.141,1.569a7.932,7.932,0,0,1,0,1.858,3.122,3.122,0,0,0,.241,1.663.709.709,0,1,1-1.3.575,4.54,4.54,0,0,1-.351-2.419,6.589,6.589,0,0,0-.008-1.539l-.142-1.581a3.076,3.076,0,0,1,.344-1.717l.364-.69a.971.971,0,0,0-.864.19,1.831,1.831,0,0,0-.329.375,5.574,5.574,0,0,0-1.054,2.46,2.146,2.146,0,0,1-3.259,1.375l-8.276-5.281a.489.489,0,0,0-.676.151.493.493,0,0,0,.15.679l6.692,4.27a.709.709,0,0,1-.763,1.2h0L97.953,302a.489.489,0,0,0-.676.151.493.493,0,0,0,.15.679l.488.311h0l1.517.968a.71.71,0,1,1-.763,1.2l-1.517-.968a.489.489,0,0,0-.676.15.493.493,0,0,0,.15.679l.764.487h0l1.028.656a.709.709,0,1,1-.763,1.2l-1.028-.656a.489.489,0,0,0-.676.151.493.493,0,0,0,.149.679l3.37,2.151a4.517,4.517,0,0,0,2.245.7,7.024,7.024,0,0,1,2.709.66.71.71,0,0,1-.3,1.352Z" transform="translate(-83.647 -267.536)"/>
        <path id="Trazado_1275980" data-name="Trazado 1275980" d="M212.494,387a1.521,1.521,0,0,1,.914.3l1.418,1.055a1.54,1.54,0,0,1,.317,2.15l-5.191,7a1.543,1.543,0,0,1-1.234.62,1.521,1.521,0,0,1-.914-.3l-1.418-1.055a1.54,1.54,0,0,1-.317-2.15l5.191-7A1.543,1.543,0,0,1,212.494,387Zm-3.761,9.7a.09.09,0,0,0,.08-.037l5.191-7a.122.122,0,0,0-.024-.166l-1.418-1.055-.067-.022a.118.118,0,0,0-.095.046l-5.191,7a.122.122,0,0,0,.024.166l1.418,1.055A.34.34,0,0,0,208.733,396.7Z" transform="translate(-186.301 -350.391)"/>
      </g>
    </g>
  </g>
</svg>
