<svg xmlns="http://www.w3.org/2000/svg" xmlns:xlink="http://www.w3.org/1999/xlink" width="98" height="98" viewBox="0 0 98 98">
  <defs>
    <filter id="Trazado_874925" x="0" y="0" width="98" height="98" filterUnits="userSpaceOnUse">
      <feOffset dy="3" input="SourceAlpha"/>
      <feGaussianBlur stdDeviation="3" result="blur"/>
      <feFlood flood-opacity="0.161"/>
      <feComposite operator="in" in2="blur"/>
      <feComposite in="SourceGraphic"/>
    </filter>
  </defs>
  <g id="Grupo_1188253" data-name="Grupo 1188253" transform="translate(-1226 -7234.362)">
    <g id="Grupo_1186900" data-name="Grupo 1186900" transform="translate(950 1142.955)">
      <g id="Grupo_1181903" data-name="Grupo 1181903">
        <g id="Grupo_1181438" data-name="Grupo 1181438">
          <g id="Grupo_1111314" data-name="Grupo 1111314" transform="translate(-734.73 3020.407)">
            <g transform="matrix(1, 0, 0, 1, 1010.73, 3071)" filter="url(#Trazado_874925)">
              <g id="Trazado_874925-2" data-name="Trazado 874925" transform="translate(9 6)" fill="#eab03c">
                <path d="M 39.99997329711914 78.50040435791016 C 34.80184936523438 78.50040435791016 29.76000595092773 77.48268127441406 25.01450729370117 75.47550201416016 C 20.43013954162598 73.53648376464844 16.3126392364502 70.76027679443359 12.7763843536377 67.22402191162109 C 9.240128517150879 63.68776702880859 6.463928699493408 59.57027053833008 4.524906635284424 54.98590087890625 C 2.517728805541992 50.24040222167969 1.500006675720215 45.19855880737305 1.500006675720215 40.00043487548828 C 1.500006675720215 34.80185699462891 2.517728805541992 29.76001358032227 4.524906635284424 25.01451301574707 C 6.463928699493408 20.43013572692871 9.240128517150879 16.31263542175293 12.7763843536377 12.77637958526611 C 16.3126392364502 9.240124702453613 20.43013954162598 6.463935375213623 25.01450729370117 4.52490234375 C 29.76000595092773 2.517724514007568 34.80184936523438 1.500002145767212 39.99997329711914 1.500002145767212 C 45.19809722900391 1.500002145767212 50.23994064331055 2.517724514007568 54.98543930053711 4.52490234375 C 59.56981658935547 6.463935375213623 63.68731689453125 9.240124702453613 67.22357177734375 12.77637958526611 C 70.75982666015625 16.31263542175293 73.53601837158203 20.43013572692871 75.47505187988281 25.01451301574707 C 77.48223114013672 29.76001358032227 78.49995422363281 34.80185699462891 78.49995422363281 39.99998092651367 C 78.49995422363281 45.19855880737305 77.48223114013672 50.24040222167969 75.47505187988281 54.98590087890625 C 73.53601837158203 59.57027053833008 70.75982666015625 63.68776702880859 67.22357177734375 67.22402191162109 C 63.68731689453125 70.76027679443359 59.56981658935547 73.53648376464844 54.98543930053711 75.47550201416016 C 50.23994064331055 77.48268127441406 45.19809722900391 78.50040435791016 39.99997329711914 78.50040435791016 Z" stroke="none"/>
                <path d="M 39.99997329711914 3 C 35.00369262695312 3 30.15843963623047 3.977851867675781 25.59883880615234 5.906417846679688 C 21.19326782226562 7.769813537597656 17.23602676391602 10.43805694580078 13.83704376220703 13.83704376220703 C 10.43805694580078 17.23601531982422 7.769813537597656 21.19325637817383 5.906410217285156 25.59882736206055 C 3.977851867675781 30.15844345092773 3 35.00368118286133 3 40.00042724609375 C 3 44.99672317504883 3.977851867675781 49.84196472167969 5.906410217285156 54.40157318115234 C 7.769813537597656 58.80714797973633 10.43805694580078 62.76438903808594 13.83704376220703 66.16336059570312 C 17.23602676391602 69.56234741210938 21.19326782226562 72.2305908203125 25.59883880615234 74.09398651123047 C 30.15843963623047 76.02255249023438 35.00369262695312 77.00040435791016 39.99997329711914 77.00040435791016 C 44.99625396728516 77.00040435791016 49.84150695800781 76.02255249023438 54.40110778808594 74.09398651123047 C 58.80667877197266 72.2305908203125 62.76391983032227 69.56234741210938 66.16290283203125 66.16336059570312 C 69.5618896484375 62.76438903808594 72.23013305664062 58.80714797973633 74.09353637695312 54.40157318115234 C 76.0220947265625 49.84196472167969 76.99994659423828 44.99672317504883 76.99994659423828 39.99997711181641 C 76.99994659423828 35.00368118286133 76.0220947265625 30.15844345092773 74.09353637695312 25.59882736206055 C 72.23013305664062 21.19325637817383 69.5618896484375 17.23601531982422 66.16290283203125 13.83704376220703 C 62.76391983032227 10.43805694580078 58.80667877197266 7.769813537597656 54.40110778808594 5.906417846679688 C 49.84150695800781 3.977851867675781 44.99625396728516 3 39.99997329711914 3 M 39.99997329711914 0 C 62.09134674072266 0 79.99994659423828 17.90858840942383 79.99994659423828 39.99997711181641 L 79.99994659423828 40.00042724609375 C 79.99994659423828 62.09181594848633 62.09134674072266 80.00040435791016 39.99997329711914 80.00040435791016 C 17.90859985351562 80.00040435791016 0 62.09181594848633 0 40.00042724609375 L 0 39.99997711181641 C 0 17.90858840942383 17.90859985351562 0 39.99997329711914 0 Z" stroke="none" fill="#fff"/>
              </g>
            </g>
          </g>
        </g>
      </g>
    </g>
    <g id="conclusion" transform="translate(1250.537 7256.898)">
      <rect id="Rect치ngulo_410811" data-name="Rect치ngulo 410811" width="9.65" height="9.65" transform="translate(35.312 14.833)" fill="#d96d6d"/>
      <rect id="Rect치ngulo_410812" data-name="Rect치ngulo 410812" width="9.65" height="9.65" transform="translate(35.312 1.966)" fill="#7bcc8f"/>
      <path id="Trazado_1275987" data-name="Trazado 1275987" d="M41.145,7.348,36.073,11.7V9.522H31V5.174h5.073V3Z" transform="translate(-8.261 -0.551)" fill="#9dc8f2"/>
      <path id="Trazado_1275988" data-name="Trazado 1275988" d="M29.537,32.841v-5.8A13.044,13.044,0,0,0,16.493,14H15.044A13.044,13.044,0,0,0,2,27.044V49.508H19.392V47.334h5.073a4.348,4.348,0,0,0,4.348-4.348V39.363l3.623-.725Z" transform="translate(-0.275 -3.58)" fill="#e6ccab"/>
      <path id="Trazado_1275989" data-name="Trazado 1275989" d="M18.718,18H16.489C10.42,18,5.5,23.7,5.5,30.721l0,.251a21.662,21.662,0,0,0,1.143,6.815l.106.311.058.171a4.013,4.013,0,0,0,3.687,2.92h0a3.614,3.614,0,0,0,2.347-.892l3.38-2.88.371-.356a6.572,6.572,0,0,1,2.715-1.591L22,34.692c4.246-1.229,6.518-6.733,4.5-11.227A8.7,8.7,0,0,0,18.718,18Z" transform="translate(-1.239 -4.681)" fill="#dae6f2"/>
      <circle id="Elipse_12268" data-name="Elipse 12268" cx="6.884" cy="6.884" r="6.884" transform="translate(8.609 15.493)" fill="#9dc8f2"/>
      <path id="Trazado_1275990" data-name="Trazado 1275990" d="M22.882,29.482a3.247,3.247,0,0,0,0-1.269l.814-.455a4.308,4.308,0,0,0-1.2-2.01l-.472.264A.6.6,0,0,1,21.406,26a3.627,3.627,0,0,0-.535-.3.561.561,0,0,1-.324-.514V24.66a4.548,4.548,0,0,0-2.4,0v.524a.561.561,0,0,1-.324.514,3.627,3.627,0,0,0-.535.3.6.6,0,0,1-.622.015l-.47-.262A4.308,4.308,0,0,0,15,27.759l.814.455a3.247,3.247,0,0,0,0,1.269L15,29.937a4.308,4.308,0,0,0,1.2,2.01l.472-.264a.6.6,0,0,1,.622.015,3.616,3.616,0,0,0,.535.3.562.562,0,0,1,.324.514v.526a4.548,4.548,0,0,0,2.4,0V32.51A.561.561,0,0,1,20.871,32a3.616,3.616,0,0,0,.535-.3.6.6,0,0,1,.622-.015l.47.262a4.308,4.308,0,0,0,1.2-2.008Zm-3.534.815A1.449,1.449,0,1,1,20.8,28.848,1.449,1.449,0,0,1,19.348,30.3Z" transform="translate(-3.855 -6.471)" fill="#7483a6"/>
      <path id="Trazado_1275991" data-name="Trazado 1275991" d="M24.12,27.3a5.038,5.038,0,0,0-1.4-2.348.724.724,0,0,0-.853-.108l-.413.23A4.421,4.421,0,0,0,21,24.812v-.428a.725.725,0,0,0-.538-.7,5.1,5.1,0,0,0-1.452-.184,5.381,5.381,0,0,0-1.319.186.725.725,0,0,0-.538.7v.426a4.42,4.42,0,0,0-.463.259l-.41-.229a.725.725,0,0,0-.853.108,5.035,5.035,0,0,0-1.4,2.347.725.725,0,0,0,.347.819l.388.217c-.006.08-.008.16-.008.24s0,.16.008.24l-.388.217a.724.724,0,0,0-.347.82,5.039,5.039,0,0,0,1.4,2.348.726.726,0,0,0,.853.108l.413-.23a4.42,4.42,0,0,0,.463.259v.428a.725.725,0,0,0,.538.7,5.385,5.385,0,0,0,1.388.184h.064a5.381,5.381,0,0,0,1.319-.186.725.725,0,0,0,.538-.7v-.426a4.42,4.42,0,0,0,.463-.259l.41.229a.724.724,0,0,0,.853-.108,5.035,5.035,0,0,0,1.4-2.347.725.725,0,0,0-.347-.819l-.388-.217c0-.081.008-.161.008-.24s0-.159-.008-.24l.388-.217A.724.724,0,0,0,24.12,27.3Zm-2.226.779a2.488,2.488,0,0,1,0,.995.725.725,0,0,0,.359.77l.282.158a3.6,3.6,0,0,1-.46.761,1.331,1.331,0,0,0-1.35.063,2.858,2.858,0,0,1-.427.238,1.286,1.286,0,0,0-.749,1.105,3.76,3.76,0,0,1-.427.03,3.409,3.409,0,0,1-.525-.03,1.285,1.285,0,0,0-.749-1.106,2.887,2.887,0,0,1-.427-.238,1.325,1.325,0,0,0-1.352-.062A3.573,3.573,0,0,1,15.609,30l.282-.158a.724.724,0,0,0,.359-.767,2.548,2.548,0,0,1,0-1,.724.724,0,0,0-.359-.767l-.282-.157a3.569,3.569,0,0,1,.46-.761,1.328,1.328,0,0,0,1.35-.063,2.857,2.857,0,0,1,.427-.238A1.286,1.286,0,0,0,18.6,24.98a3.761,3.761,0,0,1,.427-.03,3.662,3.662,0,0,1,.525.03,1.285,1.285,0,0,0,.749,1.106,2.887,2.887,0,0,1,.427.238,1.328,1.328,0,0,0,1.352.062,3.6,3.6,0,0,1,.459.762l-.283.158a.725.725,0,0,0-.359.77Z" transform="translate(-3.58 -6.195)"/>
      <path id="Trazado_1275992" data-name="Trazado 1275992" d="M20.174,27.5a2.174,2.174,0,1,0,2.174,2.174A2.174,2.174,0,0,0,20.174,27.5Zm0,2.9a.725.725,0,1,1,.725-.725.725.725,0,0,1-.725.725Z" transform="translate(-4.681 -7.297)"/>
      <path id="Trazado_1275993" data-name="Trazado 1275993" d="M29.423,29.305a6.118,6.118,0,0,1,.03.616H30.9q0-.385-.038-.761a7.686,7.686,0,0,0-.115-.761l-1.42.29A6.066,6.066,0,0,1,29.423,29.305Z" transform="translate(-7.801 -7.545)"/>
      <path id="Trazado_1275994" data-name="Trazado 1275994" d="M18.241,21.449a6.163,6.163,0,0,1,5.647,3.7l1.328-.58a7.611,7.611,0,0,0-14.235.761l1.383.435a6.135,6.135,0,0,1,5.878-4.311Z" transform="translate(-2.748 -5.232)"/>
      <path id="Trazado_1275995" data-name="Trazado 1275995" d="M11.949,30.211a6.119,6.119,0,0,1,.03-.616l-1.442-.144q-.037.375-.038.761t.038.761l1.442-.144a6.119,6.119,0,0,1-.03-.616Z" transform="translate(-2.616 -7.834)"/>
      <path id="Trazado_1275996" data-name="Trazado 1275996" d="M24.277,32.2a6.161,6.161,0,0,1-11.914.615l-1.383.435A7.611,7.611,0,0,0,25.7,32.489Z" transform="translate(-2.748 -8.591)"/>
      <path id="Trazado_1275997" data-name="Trazado 1275997" d="M26.809,30.718a9.428,9.428,0,0,0,.069-7.826A9.391,9.391,0,0,0,18.442,17H16.213C9.754,17,4.5,23.031,4.5,30.451l0,.25a22.315,22.315,0,0,0,1.182,7.044l.162.478a4.761,4.761,0,0,0,4.374,3.414,4.362,4.362,0,0,0,2.817-1.065l3.412-2.909.371-.356a5.886,5.886,0,0,1,2.415-1.417l2.686-.777a7.933,7.933,0,0,0,4.888-4.395ZM18.832,34.5a7.337,7.337,0,0,0-3.015,1.764L12.1,39.469a2.875,2.875,0,0,1-1.877.719,3.278,3.278,0,0,1-3-2.426l-.165-.485a20.853,20.853,0,0,1-1.1-6.587l0-.245c0-6.615,4.6-12,10.264-12h2.229a7.964,7.964,0,0,1,7.114,5.038,8.085,8.085,0,0,1-.063,6.623,6.488,6.488,0,0,1-3.976,3.611Z" transform="translate(-0.964 -4.406)"/>
      <path id="Trazado_1275998" data-name="Trazado 1275998" d="M1,26.768V49.232H2.449V26.768A12.333,12.333,0,0,1,14.768,14.449h1.449A12.333,12.333,0,0,1,28.537,26.768v5.8a.725.725,0,0,0,.076.324l2.475,4.949-2.693.539a.725.725,0,0,0-.582.71v3.623a3.628,3.628,0,0,1-3.623,3.623H19.116a.724.724,0,0,0-.725.725v2.174h1.449V47.783h4.348a5.078,5.078,0,0,0,5.073-5.073V39.681l3.041-.608a.725.725,0,0,0,.506-1.035l-2.822-5.644V26.768A13.784,13.784,0,0,0,16.218,13H14.768A13.784,13.784,0,0,0,1,26.768Z" transform="translate(0 -3.304)"/>
      <path id="Trazado_1275999" data-name="Trazado 1275999" d="M53.2,10.957a.715.715,0,0,0,.1-.007.723.723,0,0,0,.477-.282l3.381-4.509L56,5.289l-2.947,3.93L51.381,7.962l-.869,1.159,2.255,1.691A.723.723,0,0,0,53.2,10.957Z" transform="translate(-13.633 -1.181)"/>
      <path id="Trazado_1276000" data-name="Trazado 1276000" d="M52.018,28.8,53.9,26.921,55.776,28.8,56.8,27.776,54.921,25.9,56.8,24.018l-1.025-1.025L53.9,24.872l-1.879-1.879-1.025,1.025L52.872,25.9l-1.879,1.879Z" transform="translate(-13.766 -6.056)"/>
      <path id="Trazado_1276001" data-name="Trazado 1276001" d="M58.594,19.725A.724.724,0,0,0,57.87,19H47.725a.724.724,0,0,0-.725.725V29.87a.724.724,0,0,0,.725.725H57.87a.724.724,0,0,0,.725-.725Zm-1.449,9.42h-8.7v-8.7h8.7Z" transform="translate(-12.666 -4.956)"/>
      <path id="Trazado_1276002" data-name="Trazado 1276002" d="M58.594,1.725A.724.724,0,0,0,57.87,1H47.725A.724.724,0,0,0,47,1.725V11.87a.724.724,0,0,0,.725.725H57.87a.724.724,0,0,0,.725-.725Zm-1.449,9.42h-8.7v-8.7h8.7Z" transform="translate(-12.666 0)"/>
      <path id="Trazado_1276003" data-name="Trazado 1276003" d="M30,4.9V9.246a.724.724,0,0,0,.725.725h4.348V11.42a.724.724,0,0,0,1.2.55l5.073-4.348a.724.724,0,0,0,0-1.1L36.268,2.174a.724.724,0,0,0-1.2.55V4.174H30.725A.724.724,0,0,0,30,4.9Zm1.449.725H35.8a.724.724,0,0,0,.725-.725V4.3l3.235,2.772L36.522,9.845v-.6a.724.724,0,0,0-.725-.725H31.449Z" transform="translate(-7.985 -0.275)"/>
    </g>
  </g>
</svg>
