<svg xmlns="http://www.w3.org/2000/svg" width="72" height="72" viewBox="0 0 72 72">
  <g id="Grupo_1188778" data-name="Grupo 1188778" transform="translate(-320 -2647.688)">
    <g id="Grupo_1187223" data-name="Grupo 1187223" transform="translate(-99 1526.688)">
      <path id="Trazado_824488" data-name="Trazado 824488" d="M36,0A36,36,0,1,1,0,36,36,36,0,0,1,36,0Z" transform="translate(419 1121)" fill="#b6c4c7"/>
    </g>
    <g id="senal-de-peligro" transform="translate(331.945 2623.707)">
      <path id="Trazado_1276423" data-name="Trazado 1276423" d="M13.623,83.019A6.4,6.4,0,0,1,8.2,73.229L25.174,46.065a6.4,6.4,0,0,1,10.853,0L53,73.229a6.4,6.4,0,0,1-5.426,9.791Z" transform="translate(-6.545 -6.263)" fill="#ffe17d"/>
      <path id="Trazado_1276424" data-name="Trazado 1276424" d="M9.908,79.722a6.4,6.4,0,0,1,.17-6.494L27.056,46.065a6.357,6.357,0,0,1,4.486-2.939,6.5,6.5,0,0,0-.941-.068,6.363,6.363,0,0,0-5.426,3.008L8.2,73.229a6.4,6.4,0,0,0,5.427,9.791H15.5a6.4,6.4,0,0,1-5.6-3.3Z" transform="translate(-6.546 -6.263)" fill="#ffd164"/>
      <path id="Trazado_1276425" data-name="Trazado 1276425" d="M42.012,108.466a3.455,3.455,0,0,1-2.93-5.286L56.06,76.016a3.455,3.455,0,0,1,5.859,0L78.9,103.18a3.455,3.455,0,0,1-2.93,5.286Z" transform="translate(-34.934 -34.654)" fill="#ffc350"/>
      <path id="Trazado_1276426" data-name="Trazado 1276426" d="M229.458,177a1.4,1.4,0,0,1-1.393-1.243l-1.35-11.806a1.4,1.4,0,0,1,1.393-1.561h2.7a1.4,1.4,0,0,1,1.393,1.561l-1.35,11.806A1.4,1.4,0,0,1,229.458,177Z" transform="translate(-205.403 -114.383)" fill="#4377c4"/>
      <circle id="Elipse_12269" data-name="Elipse 12269" cx="2.192" cy="2.192" r="2.192" transform="translate(21.864 65.515)" fill="#4377c4"/>
      <path id="Trazado_1276427" data-name="Trazado 1276427" d="M229.947,175.757l-1.35-11.806a1.4,1.4,0,0,1,1.393-1.561h-1.881a1.4,1.4,0,0,0-1.393,1.561l1.35,11.806a1.4,1.4,0,0,0,2.334.88A1.4,1.4,0,0,1,229.947,175.757Z" transform="translate(-205.403 -114.383)" fill="#335a97"/>
      <path id="Trazado_1276428" data-name="Trazado 1276428" d="M234.558,350.9a2.192,2.192,0,0,1,1.251-1.98,2.192,2.192,0,1,0,0,3.96A2.192,2.192,0,0,1,234.558,350.9Z" transform="translate(-210.813 -283.198)" fill="#335a97"/>
      <g id="Grupo_1188777" data-name="Grupo 1188777" transform="translate(0 36.144)">
        <g id="Grupo_1188772" data-name="Grupo 1188772" transform="translate(0)">
          <path id="Trazado_1276429" data-name="Trazado 1276429" d="M22.518,77.462H7.077a7.171,7.171,0,0,1-6.024-10.87L18.03,39.427a7.171,7.171,0,0,1,12.05,0l6.2,9.927a.705.705,0,0,1-1.2.748l-6.2-9.927a5.771,5.771,0,0,0-9.657,0L2.25,67.34a5.745,5.745,0,0,0,4.828,8.711H22.518a.705.705,0,0,1,0,1.411Z" transform="translate(0 -36.144)"/>
        </g>
        <g id="Grupo_1188773" data-name="Grupo 1188773" transform="translate(24.887 15.491)">
          <path id="Trazado_1276430" data-name="Trazado 1276430" d="M281,226.827H265.555a.705.705,0,0,1,0-1.411H281a5.745,5.745,0,0,0,4.828-8.711l-9.14-14.625a.706.706,0,0,1,1.2-.748l9.14,14.625A7.17,7.17,0,0,1,281,226.827Z" transform="translate(-264.85 -201)"/>
        </g>
        <g id="Grupo_1188774" data-name="Grupo 1188774" transform="translate(2.941 2.936)">
          <path id="Trazado_1276431" data-name="Trazado 1276431" d="M69.393,102.826H35.437a4.216,4.216,0,0,1-3.528-6.365L42.5,79.518a.705.705,0,1,1,1.2.748L33.106,97.209a2.773,2.773,0,0,0,2.331,4.206H69.393a2.773,2.773,0,0,0,2.331-4.206L54.746,70.045a2.772,2.772,0,0,0-4.662,0l-4.758,7.613a.705.705,0,1,1-1.2-.748L48.887,69.3a4.215,4.215,0,0,1,7.055,0L72.92,96.461a4.216,4.216,0,0,1-3.528,6.365Z" transform="translate(-31.301 -67.389)"/>
        </g>
        <g id="Grupo_1188775" data-name="Grupo 1188775" transform="translate(20.611 11.157)">
          <path id="Trazado_1276432" data-name="Trazado 1276432" d="M222.788,170.9a2.107,2.107,0,0,1-2.094-1.868l-1.35-11.806a2.108,2.108,0,0,1,2.094-2.347h2.7a2.108,2.108,0,0,1,2.094,2.347l-1.35,11.806A2.107,2.107,0,0,1,222.788,170.9Zm-1.35-14.61a.7.7,0,0,0-.692.776l1.35,11.806a.7.7,0,0,0,1.384,0l1.35-11.806a.7.7,0,0,0-.692-.776Z" transform="translate(-219.344 -154.883)"/>
        </g>
        <g id="Grupo_1188776" data-name="Grupo 1188776" transform="translate(21.158 28.665)">
          <path id="Trazado_1276433" data-name="Trazado 1276433" d="M228.066,347a2.9,2.9,0,1,1,2.9-2.9A2.9,2.9,0,0,1,228.066,347Zm0-4.383a1.486,1.486,0,1,0,1.486,1.486A1.488,1.488,0,0,0,228.066,342.615Z" transform="translate(-225.169 -341.204)"/>
        </g>
      </g>
    </g>
  </g>
</svg>
