<svg xmlns="http://www.w3.org/2000/svg" xmlns:xlink="http://www.w3.org/1999/xlink" width="98" height="98" viewBox="0 0 98 98">
  <defs>
    <filter id="Trazado_874925" x="0" y="0" width="98" height="98" filterUnits="userSpaceOnUse">
      <feOffset dy="3" input="SourceAlpha"/>
      <feGaussianBlur stdDeviation="3" result="blur"/>
      <feFlood flood-opacity="0.161"/>
      <feComposite operator="in" in2="blur"/>
      <feComposite in="SourceGraphic"/>
    </filter>
  </defs>
  <g id="Grupo_1188251" data-name="Grupo 1188251" transform="translate(-596 -7234.362)">
    <g id="Grupo_1186898" data-name="Grupo 1186898" transform="translate(320 1142.955)">
      <g id="Grupo_1181903" data-name="Grupo 1181903">
        <g id="Grupo_1181438" data-name="Grupo 1181438">
          <g id="Grupo_1111314" data-name="Grupo 1111314" transform="translate(-734.73 3020.407)">
            <g transform="matrix(1, 0, 0, 1, 1010.73, 3071)" filter="url(#Trazado_874925)">
              <g id="Trazado_874925-2" data-name="Trazado 874925" transform="translate(9 6)" fill="#eab03c">
                <path d="M 39.99997329711914 78.50040435791016 C 34.80184936523438 78.50040435791016 29.76000595092773 77.48268127441406 25.01450729370117 75.47550201416016 C 20.43013954162598 73.53648376464844 16.3126392364502 70.76027679443359 12.7763843536377 67.22402191162109 C 9.240128517150879 63.68776702880859 6.463928699493408 59.57027053833008 4.524906635284424 54.98590087890625 C 2.517728805541992 50.24040222167969 1.500006675720215 45.19855880737305 1.500006675720215 40.00043487548828 C 1.500006675720215 34.80185699462891 2.517728805541992 29.76001358032227 4.524906635284424 25.01451301574707 C 6.463928699493408 20.43013572692871 9.240128517150879 16.31263542175293 12.7763843536377 12.77637958526611 C 16.3126392364502 9.240124702453613 20.43013954162598 6.463935375213623 25.01450729370117 4.52490234375 C 29.76000595092773 2.517724514007568 34.80184936523438 1.500002145767212 39.99997329711914 1.500002145767212 C 45.19809722900391 1.500002145767212 50.23994064331055 2.517724514007568 54.98543930053711 4.52490234375 C 59.56981658935547 6.463935375213623 63.68731689453125 9.240124702453613 67.22357177734375 12.77637958526611 C 70.75982666015625 16.31263542175293 73.53601837158203 20.43013572692871 75.47505187988281 25.01451301574707 C 77.48223114013672 29.76001358032227 78.49995422363281 34.80185699462891 78.49995422363281 39.99998092651367 C 78.49995422363281 45.19855880737305 77.48223114013672 50.24040222167969 75.47505187988281 54.98590087890625 C 73.53601837158203 59.57027053833008 70.75982666015625 63.68776702880859 67.22357177734375 67.22402191162109 C 63.68731689453125 70.76027679443359 59.56981658935547 73.53648376464844 54.98543930053711 75.47550201416016 C 50.23994064331055 77.48268127441406 45.19809722900391 78.50040435791016 39.99997329711914 78.50040435791016 Z" stroke="none"/>
                <path d="M 39.99997329711914 3 C 35.00369262695312 3 30.15843963623047 3.977851867675781 25.59883880615234 5.906417846679688 C 21.19326782226562 7.769813537597656 17.23602676391602 10.43805694580078 13.83704376220703 13.83704376220703 C 10.43805694580078 17.23601531982422 7.769813537597656 21.19325637817383 5.906410217285156 25.59882736206055 C 3.977851867675781 30.15844345092773 3 35.00368118286133 3 40.00042724609375 C 3 44.99672317504883 3.977851867675781 49.84196472167969 5.906410217285156 54.40157318115234 C 7.769813537597656 58.80714797973633 10.43805694580078 62.76438903808594 13.83704376220703 66.16336059570312 C 17.23602676391602 69.56234741210938 21.19326782226562 72.2305908203125 25.59883880615234 74.09398651123047 C 30.15843963623047 76.02255249023438 35.00369262695312 77.00040435791016 39.99997329711914 77.00040435791016 C 44.99625396728516 77.00040435791016 49.84150695800781 76.02255249023438 54.40110778808594 74.09398651123047 C 58.80667877197266 72.2305908203125 62.76391983032227 69.56234741210938 66.16290283203125 66.16336059570312 C 69.5618896484375 62.76438903808594 72.23013305664062 58.80714797973633 74.09353637695312 54.40157318115234 C 76.0220947265625 49.84196472167969 76.99994659423828 44.99672317504883 76.99994659423828 39.99997711181641 C 76.99994659423828 35.00368118286133 76.0220947265625 30.15844345092773 74.09353637695312 25.59882736206055 C 72.23013305664062 21.19325637817383 69.5618896484375 17.23601531982422 66.16290283203125 13.83704376220703 C 62.76391983032227 10.43805694580078 58.80667877197266 7.769813537597656 54.40110778808594 5.906417846679688 C 49.84150695800781 3.977851867675781 44.99625396728516 3 39.99997329711914 3 M 39.99997329711914 0 C 62.09134674072266 0 79.99994659423828 17.90858840942383 79.99994659423828 39.99997711181641 L 79.99994659423828 40.00042724609375 C 79.99994659423828 62.09181594848633 62.09134674072266 80.00040435791016 39.99997329711914 80.00040435791016 C 17.90859985351562 80.00040435791016 0 62.09181594848633 0 40.00042724609375 L 0 39.99997711181641 C 0 17.90858840942383 17.90859985351562 0 39.99997329711914 0 Z" stroke="none" fill="#fff"/>
              </g>
            </g>
          </g>
        </g>
      </g>
    </g>
    <g id="mujer" transform="translate(592.97 7254.079)">
      <g id="Grupo_1188249" data-name="Grupo 1188249" transform="translate(28.698 0.759)">
        <path id="Trazado_1275962" data-name="Trazado 1275962" d="M66.394,187.508a9.666,9.666,0,0,1-.842-3.945l-.024-4.378a11.37,11.37,0,0,0-15.421-10.617l-7.3,10.617-.024,4.378a9.665,9.665,0,0,1-.842,3.945,1.609,1.609,0,0,0,.838,2.124l11.39,4.974,11.39-4.974A1.609,1.609,0,0,0,66.394,187.508Z" transform="translate(-41.156 -151.589)" fill="#785353"/>
        <path id="Trazado_1275963" data-name="Trazado 1275963" d="M50.107,175.188a11.375,11.375,0,0,0-7.3,10.617l-.024,4.378a9.665,9.665,0,0,1-.842,3.945,1.609,1.609,0,0,0,.838,2.124l7.332,3.2V175.188Z" transform="translate(-41.156 -158.21)" fill="#6e4848"/>
        <path id="Trazado_1275964" data-name="Trazado 1275964" d="M59.508,361.879l-5.6-2.544a2.435,2.435,0,0,1-1.427-2.217v-4.925H44.367v4.925a2.435,2.435,0,0,1-1.427,2.217l-5.6,2.544a3.246,3.246,0,0,0-1.9,2.956v.344H61.411v-.344A3.246,3.246,0,0,0,59.508,361.879Z" transform="translate(-35.439 -317.293)" fill="#d19a6e"/>
        <path id="Trazado_1275965" data-name="Trazado 1275965" d="M123.617,357.054a10.556,10.556,0,0,0,8.116.017v-4.879h-8.116v4.861Z" transform="translate(-114.689 -317.293)" fill="#c38c66"/>
        <path id="Trazado_1275966" data-name="Trazado 1275966" d="M98.872,240.984c-5.951.719-9.3-1.671-10.9-3.391a.813.813,0,0,0-1.167-.008l-2.556,2.556a2.435,2.435,0,0,0-.713,1.722v1.96a8.3,8.3,0,0,0,7.576,8.377,8.117,8.117,0,0,0,8.657-8.1v-2.3a.812.812,0,0,0-.9-.814Z" transform="translate(-78.667 -214.071)" fill="#e2a975"/>
        <circle id="Elipse_12263" data-name="Elipse 12263" cx="7.305" cy="7.305" r="7.305" transform="translate(30.054)" fill="#faf5dc"/>
        <circle id="Elipse_12264" data-name="Elipse 12264" cx="8.928" cy="8.928" r="8.928" transform="translate(9.74 4.87)" fill="#faf5dc"/>
        <path id="Trazado_1275967" data-name="Trazado 1275967" d="M61.412,438.1V435.32a3.247,3.247,0,0,0-1.9-2.956l-3.84-1.746-6.2,2.929a2.435,2.435,0,0,1-2.079,0l-6.2-2.929-3.84,1.746a3.247,3.247,0,0,0-1.9,2.956V438.1Z" transform="translate(-35.44 -387.778)" fill="#f5ebcd"/>
        <path id="Trazado_1275968" data-name="Trazado 1275968" d="M99.769,243.29V241.8a.812.812,0,0,0-.9-.814c-5.951.719-9.3-1.671-10.9-3.391a.813.813,0,0,0-1.167-.008l-2.556,2.556a2.435,2.435,0,0,0-.713,1.722v1.96a8.509,8.509,0,0,0,4.082,7.28v-7.717a1.616,1.616,0,0,1,2.353-1.449,14.227,14.227,0,0,0,6.8,1.6A19.841,19.841,0,0,0,99.769,243.29Z" transform="translate(-78.666 -214.071)" fill="#d19a6e"/>
        <g id="Grupo_1188248" data-name="Grupo 1188248" transform="translate(9.74 1.397)">
          <path id="Trazado_1275969" data-name="Trazado 1275969" d="M142.2,88.3a8.917,8.917,0,0,1-7.071-14.364,8.92,8.92,0,1,0,12.507,12.507A8.878,8.878,0,0,1,142.2,88.3Z" transform="translate(-131.634 -68.607)" fill="#f5ebcd"/>
          <path id="Trazado_1275970" data-name="Trazado 1275970" d="M341.2,32.888A7.3,7.3,0,0,1,335.29,21.3a7.3,7.3,0,1,0,10.192,10.192,7.262,7.262,0,0,1-4.284,1.4Z" transform="translate(-311.956 -21.299)" fill="#f5ebcd"/>
        </g>
      </g>
      <g id="Grupo_1188250" data-name="Grupo 1188250" transform="translate(27.939)">
        <path id="Trazado_1275971" data-name="Trazado 1275971" d="M53.082,202.236l-5.151-2.341,5.287-2.644a2.731,2.731,0,0,0,1.281-3.494,8.861,8.861,0,0,1-.692-3.442v-4.057a12.659,12.659,0,0,0-.344-2.932.759.759,0,1,0-1.477.352,11.135,11.135,0,0,1,.3,2.58v4.057a10.371,10.371,0,0,0,.81,4.029,1.194,1.194,0,0,1-.559,1.549l-5.894,2.947a1.669,1.669,0,0,1-.143-.674v-2.344a8.876,8.876,0,0,0,4.058-7.451v-2.307a1.583,1.583,0,0,0-.533-1.184,1.548,1.548,0,0,0-1.212-.38,12.159,12.159,0,0,1-8.834-1.9,8.575,8.575,0,0,1-2.489-2.686.759.759,0,0,0-1.357.682,9.872,9.872,0,0,0,2.884,3.183c1.837,1.346,5.059,2.825,9.978,2.23,0,0,.01,0,.022.009a.063.063,0,0,1,.022.048v2.307a7.357,7.357,0,0,1-14.714,0v-2.238a1.664,1.664,0,0,1,.491-1.185l.91-.91a.759.759,0,1,0-1.074-1.074l-.91.91a3.173,3.173,0,0,0-.936,2.259v2.238a8.875,8.875,0,0,0,4.058,7.451v2.344a1.669,1.669,0,0,1-.143.674l-5.894-2.947a1.194,1.194,0,0,1-.559-1.549,10.369,10.369,0,0,0,.81-4.029v-4.378a10.644,10.644,0,0,1,5.3-9.185.759.759,0,1,0-.76-1.315,12.167,12.167,0,0,0-6.061,10.5v4.378a8.86,8.86,0,0,1-.692,3.442,2.731,2.731,0,0,0,1.281,3.494l5.287,2.644-5.151,2.341a4.014,4.014,0,0,0-2.348,3.647v2.779a.759.759,0,0,0,1.519,0v-2.779a2.492,2.492,0,0,1,1.458-2.264l3.52-1.6,5.893,2.783a3.164,3.164,0,0,0,2.711,0l5.893-2.783,3.52,1.6a2.492,2.492,0,0,1,1.458,2.264v2.779a.759.759,0,0,0,1.519,0v-2.779a4.014,4.014,0,0,0-2.348-3.647Zm-10.69,1.192a1.651,1.651,0,0,1-1.414,0l-4.729-2.233.265-.121a3.2,3.2,0,0,0,1.872-2.908V196.61a8.873,8.873,0,0,0,6.6,0v1.555a3.2,3.2,0,0,0,1.873,2.908l.265.121Z" transform="translate(-27.939 -157.581)"/>
        <path id="Trazado_1275972" data-name="Trazado 1275972" d="M332.834,0A8.064,8.064,0,1,0,340.9,8.064,8.073,8.073,0,0,0,332.834,0Zm0,14.609a6.545,6.545,0,1,1,6.545-6.545,6.553,6.553,0,0,1-6.545,6.545Z" transform="translate(-294.716)"/>
        <path id="Trazado_1275973" data-name="Trazado 1275973" d="M133.82,48.1a9.687,9.687,0,1,0,9.687,9.687A9.7,9.7,0,0,0,133.82,48.1Zm0,17.856a8.169,8.169,0,1,1,8.169-8.168A8.178,8.178,0,0,1,133.82,65.953Z" transform="translate(-114.393 -43.227)"/>
        <path id="Trazado_1275974" data-name="Trazado 1275974" d="M194.586,94.408a2.816,2.816,0,0,0-2.842,2.42,2.849,2.849,0,0,0-.027.391.759.759,0,0,0,1.519,0,1.319,1.319,0,0,1,.013-.181,1.292,1.292,0,1,1,1.28,1.474.759.759,0,0,0-.759.759v2.146a.759.759,0,1,0,1.519,0V99.924a2.825,2.825,0,0,0,1.279-.771,2.789,2.789,0,0,0,.769-2.084,2.819,2.819,0,0,0-2.75-2.662Z" transform="translate(-175.135 -84.848)"/>
        <path id="Trazado_1275975" data-name="Trazado 1275975" d="M381.542,34.17a2.612,2.612,0,0,0-2.638,2.246,2.639,2.639,0,0,0-.025.363.759.759,0,1,0,1.519,0,1.113,1.113,0,0,1,.011-.153,1.09,1.09,0,1,1,1.08,1.244.759.759,0,0,0-.759.759v1.934a.759.759,0,1,0,1.519,0V39.274a2.62,2.62,0,0,0,1.133-.7,2.588,2.588,0,0,0,.714-1.934A2.617,2.617,0,0,0,381.542,34.17Z" transform="translate(-343.346 -30.71)"/>
        <path id="Trazado_1275976" data-name="Trazado 1275976" d="M333.13,186.375a3.184,3.184,0,0,0-3.219,2.741,3.217,3.217,0,0,0-.031.443.759.759,0,0,0,1.519,0,1.7,1.7,0,0,1,.016-.233,1.665,1.665,0,1,1,1.649,1.9.759.759,0,0,0-.759.759v2.536a.759.759,0,1,0,1.519,0V192.65a3.2,3.2,0,0,0,1.55-.9,3.158,3.158,0,0,0,.871-2.36A3.194,3.194,0,0,0,333.13,186.375Z" transform="translate(-299.309 -167.504)"/>
        <circle id="Elipse_12265" data-name="Elipse 12265" cx="0.759" cy="0.759" r="0.759" transform="translate(18.63 18.484)"/>
        <circle id="Elipse_12266" data-name="Elipse 12266" cx="0.759" cy="0.759" r="0.759" transform="translate(37.382 11.508)"/>
        <circle id="Elipse_12267" data-name="Elipse 12267" cx="0.759" cy="0.759" r="0.759" transform="translate(32.996 29.421)"/>
      </g>
    </g>
  </g>
</svg>
