<svg xmlns="http://www.w3.org/2000/svg" xmlns:xlink="http://www.w3.org/1999/xlink" width="98" height="98" viewBox="0 0 98 98">
  <defs>
    <filter id="Trazado_874925" x="0" y="0" width="98" height="98" filterUnits="userSpaceOnUse">
      <feOffset dy="3" input="SourceAlpha"/>
      <feGaussianBlur stdDeviation="3" result="blur"/>
      <feFlood flood-opacity="0.161"/>
      <feComposite operator="in" in2="blur"/>
      <feComposite in="SourceGraphic"/>
    </filter>
  </defs>
  <g id="Grupo_1188252" data-name="Grupo 1188252" transform="translate(-906.051 -7234)">
    <g id="Grupo_1186899" data-name="Grupo 1186899" transform="translate(630.051 1142.593)">
      <g id="Grupo_1181903" data-name="Grupo 1181903">
        <g id="Grupo_1181438" data-name="Grupo 1181438">
          <g id="Grupo_1111314" data-name="Grupo 1111314" transform="translate(-734.73 3020.407)">
            <g transform="matrix(1, 0, 0, 1, 1010.73, 3071)" filter="url(#Trazado_874925)">
              <g id="Trazado_874925-2" data-name="Trazado 874925" transform="translate(9 6)" fill="#eab03c">
                <path d="M 39.99997329711914 78.50040435791016 C 34.80184936523438 78.50040435791016 29.76000595092773 77.48268127441406 25.01450729370117 75.47550201416016 C 20.43013954162598 73.53648376464844 16.3126392364502 70.76027679443359 12.7763843536377 67.22402191162109 C 9.240128517150879 63.68776702880859 6.463928699493408 59.57027053833008 4.524906635284424 54.98590087890625 C 2.517728805541992 50.24040222167969 1.500006675720215 45.19855880737305 1.500006675720215 40.00043487548828 C 1.500006675720215 34.80185699462891 2.517728805541992 29.76001358032227 4.524906635284424 25.01451301574707 C 6.463928699493408 20.43013572692871 9.240128517150879 16.31263542175293 12.7763843536377 12.77637958526611 C 16.3126392364502 9.240124702453613 20.43013954162598 6.463935375213623 25.01450729370117 4.52490234375 C 29.76000595092773 2.517724514007568 34.80184936523438 1.500002145767212 39.99997329711914 1.500002145767212 C 45.19809722900391 1.500002145767212 50.23994064331055 2.517724514007568 54.98543930053711 4.52490234375 C 59.56981658935547 6.463935375213623 63.68731689453125 9.240124702453613 67.22357177734375 12.77637958526611 C 70.75982666015625 16.31263542175293 73.53601837158203 20.43013572692871 75.47505187988281 25.01451301574707 C 77.48223114013672 29.76001358032227 78.49995422363281 34.80185699462891 78.49995422363281 39.99998092651367 C 78.49995422363281 45.19855880737305 77.48223114013672 50.24040222167969 75.47505187988281 54.98590087890625 C 73.53601837158203 59.57027053833008 70.75982666015625 63.68776702880859 67.22357177734375 67.22402191162109 C 63.68731689453125 70.76027679443359 59.56981658935547 73.53648376464844 54.98543930053711 75.47550201416016 C 50.23994064331055 77.48268127441406 45.19809722900391 78.50040435791016 39.99997329711914 78.50040435791016 Z" stroke="none"/>
                <path d="M 39.99997329711914 3 C 35.00369262695312 3 30.15843963623047 3.977851867675781 25.59883880615234 5.906417846679688 C 21.19326782226562 7.769813537597656 17.23602676391602 10.43805694580078 13.83704376220703 13.83704376220703 C 10.43805694580078 17.23601531982422 7.769813537597656 21.19325637817383 5.906410217285156 25.59882736206055 C 3.977851867675781 30.15844345092773 3 35.00368118286133 3 40.00042724609375 C 3 44.99672317504883 3.977851867675781 49.84196472167969 5.906410217285156 54.40157318115234 C 7.769813537597656 58.80714797973633 10.43805694580078 62.76438903808594 13.83704376220703 66.16336059570312 C 17.23602676391602 69.56234741210938 21.19326782226562 72.2305908203125 25.59883880615234 74.09398651123047 C 30.15843963623047 76.02255249023438 35.00369262695312 77.00040435791016 39.99997329711914 77.00040435791016 C 44.99625396728516 77.00040435791016 49.84150695800781 76.02255249023438 54.40110778808594 74.09398651123047 C 58.80667877197266 72.2305908203125 62.76391983032227 69.56234741210938 66.16290283203125 66.16336059570312 C 69.5618896484375 62.76438903808594 72.23013305664062 58.80714797973633 74.09353637695312 54.40157318115234 C 76.0220947265625 49.84196472167969 76.99994659423828 44.99672317504883 76.99994659423828 39.99997711181641 C 76.99994659423828 35.00368118286133 76.0220947265625 30.15844345092773 74.09353637695312 25.59882736206055 C 72.23013305664062 21.19325637817383 69.5618896484375 17.23601531982422 66.16290283203125 13.83704376220703 C 62.76391983032227 10.43805694580078 58.80667877197266 7.769813537597656 54.40110778808594 5.906417846679688 C 49.84150695800781 3.977851867675781 44.99625396728516 3 39.99997329711914 3 M 39.99997329711914 0 C 62.09134674072266 0 79.99994659423828 17.90858840942383 79.99994659423828 39.99997711181641 L 79.99994659423828 40.00042724609375 C 79.99994659423828 62.09181594848633 62.09134674072266 80.00040435791016 39.99997329711914 80.00040435791016 C 17.90859985351562 80.00040435791016 0 62.09181594848633 0 40.00042724609375 L 0 39.99997711181641 C 0 17.90858840942383 17.90859985351562 0 39.99997329711914 0 Z" stroke="none" fill="#fff"/>
              </g>
            </g>
          </g>
        </g>
      </g>
    </g>
    <g id="conversacion" transform="translate(931.051 7257)">
      <path id="Trazado_1275977" data-name="Trazado 1275977" d="M35.536,184H15.551A5.551,5.551,0,0,0,10,189.551V203.8a5.551,5.551,0,0,0,5.551,5.551h6.012l-.083.007,4.064,4.064,0-4.071h9.99a5.551,5.551,0,0,0,5.551-5.551V189.551A5.551,5.551,0,0,0,35.536,184Z" transform="translate(-9.075 -166.976)" fill="#c7eaff"/>
      <path id="Trazado_1275978" data-name="Trazado 1275978" d="M16.469,205.273a.925.925,0,0,1-.654-.271l-3.8-3.8H6.477A6.484,6.484,0,0,1,0,194.725V180.477A6.484,6.484,0,0,1,6.477,174h9.345a.925.925,0,1,1,0,1.85H6.477a4.631,4.631,0,0,0-4.626,4.626v14.248a4.631,4.631,0,0,0,4.626,4.626h6.012a.926.926,0,0,1,.849.556l2.208,2.208v-1.84a.925.925,0,0,1,.925-.925h9.989a4.631,4.631,0,0,0,4.626-4.626v-6.384a.925.925,0,0,1,1.85,0v6.384a6.484,6.484,0,0,1-6.477,6.477H17.4l0,3.146a.925.925,0,0,1-.925.925Z" transform="translate(0 -157.901)"/>
      <path id="Trazado_1275979" data-name="Trazado 1275979" d="M220.864,10h-2.342A12.523,12.523,0,0,0,206,22.523h0a12.523,12.523,0,0,0,12.523,12.523h2.342a12.519,12.519,0,0,0,3.683-.551l3.843,3.841v-5.8a12.5,12.5,0,0,0,5-10.009h0A12.522,12.522,0,0,0,220.864,10Z" transform="translate(-186.94 -9.075)" fill="#ffbc53"/>
      <path id="Trazado_1275980" data-name="Trazado 1275980" d="M219.316,30.186a.925.925,0,0,1-.654-.271L215.2,26.458a13.474,13.474,0,0,1-3.413.438h-2.342a13.448,13.448,0,0,1,0-26.9h2.342a13.463,13.463,0,0,1,13.448,13.448,13.3,13.3,0,0,1-1.461,6.1,13.576,13.576,0,0,1-3.535,4.358v5.353a.925.925,0,0,1-.925.925Zm-3.844-5.692a.926.926,0,0,1,.654.271l2.264,2.263V23.457a.925.925,0,0,1,.369-.739,11.6,11.6,0,0,0-6.97-20.867h-2.342a11.6,11.6,0,0,0,0,23.195h2.342a11.6,11.6,0,0,0,3.411-.51A.924.924,0,0,1,215.472,24.494Z" transform="translate(-177.866)"/>
      <path id="Trazado_1275981" data-name="Trazado 1275981" d="M318.379,80.862a.925.925,0,0,1-.925-.925V77.713A1.751,1.751,0,0,1,318.833,76a2.067,2.067,0,1,0-2.521-2.017.925.925,0,1,1-1.85,0,3.931,3.931,0,0,1,1.245-2.864,3.887,3.887,0,0,1,2.948-1.044,3.918,3.918,0,0,1,.65,7.715v2.149A.925.925,0,0,1,318.379,80.862Z" transform="translate(-285.367 -63.581)"/>
      <path id="Trazado_1275982" data-name="Trazado 1275982" d="M347.725,208.18a.924.924,0,1,1,.654-.27A.931.931,0,0,1,347.725,208.18Z" transform="translate(-314.713 -187.24)"/>
      <path id="Trazado_1275983" data-name="Trazado 1275983" d="M74.448,311.85H54.925a.925.925,0,1,1,0-1.85H74.448a.925.925,0,1,1,0,1.85Z" transform="translate(-49.004 -281.318)"/>
      <path id="Trazado_1275984" data-name="Trazado 1275984" d="M265.925,367.85a.926.926,0,1,1,.654-.271A.932.932,0,0,1,265.925,367.85Z" transform="translate(-240.482 -332.137)"/>
      <path id="Trazado_1275985" data-name="Trazado 1275985" d="M70.808,367.85H54.925a.925.925,0,1,1,0-1.85H70.808a.925.925,0,1,1,0,1.85Z" transform="translate(-49.004 -332.137)"/>
      <path id="Trazado_1275986" data-name="Trazado 1275986" d="M68.434,255.85H54.925a.925.925,0,1,1,0-1.85H68.434a.925.925,0,0,1,0,1.85Z" transform="translate(-49.004 -230.499)"/>
    </g>
  </g>
</svg>
